<svg id="Filled" height="512" viewBox="0 0 512 512" width="512" xmlns="http://www.w3.org/2000/svg"><path d="m24 64h464v288h-464z" fill="#eb423f"/><path d="m256 64h232v288h-232z" fill="#d13330"/><path d="m456 48v272h-168a32 32 0 0 0 -32 32v-272a32 32 0 0 1 32-32z" fill="#e1e3e6"/><path d="m256 80v272a32 32 0 0 0 -32-32h-168v-272h168a32 32 0 0 1 32 32z" fill="#e9eef2"/><g fill="#7e8589"><path d="m168 96h-80a8 8 0 0 1 0-16h80a8 8 0 0 1 0 16z"/><path d="m224 96h-24a8 8 0 0 1 0-16h24a8 8 0 0 1 0 16z"/><path d="m224 160h-80a8 8 0 0 1 0-16h80a8 8 0 0 1 0 16z"/><path d="m112 160h-24a8 8 0 0 1 0-16h24a8 8 0 0 1 0 16z"/><path d="m224 128h-136a8 8 0 0 1 0-16h136a8 8 0 0 1 0 16z"/><path d="m168 224h-80a8 8 0 0 1 0-16h80a8 8 0 0 1 0 16z"/><path d="m224 224h-24a8 8 0 0 1 0-16h24a8 8 0 0 1 0 16z"/><path d="m224 192h-136a8 8 0 0 1 0-16h136a8 8 0 0 1 0 16z"/></g><path d="m424 96h-80a8 8 0 0 1 0-16h80a8 8 0 0 1 0 16z" fill="#757c80"/><path d="m312 96h-24a8 8 0 0 1 0-16h24a8 8 0 0 1 0 16z" fill="#757c80"/><path d="m368 160h-80a8 8 0 0 1 0-16h80a8 8 0 0 1 0 16z" fill="#757c80"/><path d="m424 160h-24a8 8 0 0 1 0-16h24a8 8 0 0 1 0 16z" fill="#757c80"/><path d="m424 128h-136a8 8 0 0 1 0-16h136a8 8 0 0 1 0 16z" fill="#757c80"/><path d="m424 224h-80a8 8 0 0 1 0-16h80a8 8 0 0 1 0 16z" fill="#757c80"/><path d="m312 224h-24a8 8 0 0 1 0-16h24a8 8 0 0 1 0 16z" fill="#757c80"/><path d="m424 192h-136a8 8 0 0 1 0-16h136a8 8 0 0 1 0 16z" fill="#757c80"/><path d="m288 400v48h-161l-23-48v-48h184z" fill="#f7cca9"/><path d="m216 416a8 8 0 0 1 -16 0c0-20.33-8.18-35.89-24.33-46.27a72.2 72.2 0 0 0 -23.67-9.6v-16.13a8.708 8.708 0 0 1 1.13.08 86.18 86.18 0 0 1 31.2 12.19c14.45 9.29 31.67 27.19 31.67 59.73z" fill="#e0b999"/><path d="m128 448h160v48h-160z" fill="#2d85cc"/><path d="m56 320h400v32h-400z" fill="#c3c6c7"/><path d="m256 320h200v32h-200z" fill="#b6b9ba"/><path d="m224 288h-80a8 8 0 0 1 0-16h80a8 8 0 0 1 0 16z" fill="#7e8589"/><path d="m112 288h-24a8 8 0 0 1 0-16h24a8 8 0 0 1 0 16z" fill="#7e8589"/><path d="m224 256h-136a8 8 0 0 1 0-16h136a8 8 0 0 1 0 16z" fill="#7e8589"/><path d="m368 288h-80a8 8 0 0 1 0-16h80a8 8 0 0 1 0 16z" fill="#757c80"/><path d="m424 288h-24a8 8 0 0 1 0-16h24a8 8 0 0 1 0 16z" fill="#757c80"/><path d="m424 256h-136a8 8 0 0 1 0-16h136a8 8 0 0 1 0 16z" fill="#757c80"/><path d="m112 240h8a32 32 0 0 1 32 32v88a0 0 0 0 1 0 0h-48a0 0 0 0 1 0 0v-112a8 8 0 0 1 8-8z" fill="#f7cca9"/><path d="m488 56h-24v-8a8 8 0 0 0 -8-8h-168a39.964 39.964 0 0 0 -32 16.028 39.964 39.964 0 0 0 -32-16.028h-168a8 8 0 0 0 -8 8v8h-24a8 8 0 0 0 -8 8v288a8 8 0 0 0 8 8h72v40a8.016 8.016 0 0 0 .785 3.457l23 48c.063.132.145.25.215.377v44.166a8 8 0 0 0 8 8h160a8 8 0 0 0 8-8v-136h192a8 8 0 0 0 8-8v-288a8 8 0 0 0 -8-8zm-222.624 288a24.039 24.039 0 0 1 22.624-16h160v16zm-105.376 0v-16h64a24.039 24.039 0 0 1 22.624 16zm128-288h160v256h-160a39.788 39.788 0 0 0 -24 8.022v-240.022a24.028 24.028 0 0 1 24-24zm-224 0h160a24.028 24.028 0 0 1 24 24v240.019a39.792 39.792 0 0 0 -24-8.019h-64v-24h64a8 8 0 0 0 0-16h-64a39.759 39.759 0 0 0 -3.35-16h67.35a8 8 0 0 0 0-16h-80.026a39.8 39.8 0 0 0 -23.974-8h-8a16 16 0 0 0 -13.835 8h-10.165a8 8 0 0 0 0 16h8v16h-8a8 8 0 0 0 0 16h8v24h-32zm-32 16h16v272h-16zm32 272v-16h32v16zm72 144v-32h144v32zm144-48h-147.962l-20.038-41.817v-150.183h8a24.028 24.028 0 0 1 24 24v80a8 8 0 0 0 6.868 7.92 71.291 71.291 0 0 1 24.806 9.809c16.141 10.377 24.326 25.945 24.326 46.271a8 8 0 0 0 16 0c0-28.634-13.339-45.93-26.387-56h90.387zm200-96h-16v-272h16z"/><path d="m88 96h80a8 8 0 0 0 0-16h-80a8 8 0 0 0 0 16z"/><path d="m200 96h24a8 8 0 0 0 0-16h-24a8 8 0 0 0 0 16z"/><path d="m224 144h-80a8 8 0 0 0 0 16h80a8 8 0 0 0 0-16z"/><path d="m88 160h24a8 8 0 0 0 0-16h-24a8 8 0 0 0 0 16z"/><path d="m88 128h136a8 8 0 0 0 0-16h-136a8 8 0 0 0 0 16z"/><path d="m88 224h80a8 8 0 0 0 0-16h-80a8 8 0 0 0 0 16z"/><path d="m224 208h-24a8 8 0 0 0 0 16h24a8 8 0 0 0 0-16z"/><path d="m88 192h136a8 8 0 0 0 0-16h-136a8 8 0 0 0 0 16z"/><path d="m344 96h80a8 8 0 0 0 0-16h-80a8 8 0 0 0 0 16z"/><path d="m288 96h24a8 8 0 0 0 0-16h-24a8 8 0 0 0 0 16z"/><path d="m288 160h80a8 8 0 0 0 0-16h-80a8 8 0 0 0 0 16z"/><path d="m424 144h-24a8 8 0 0 0 0 16h24a8 8 0 0 0 0-16z"/><path d="m288 128h136a8 8 0 0 0 0-16h-136a8 8 0 0 0 0 16z"/><path d="m424 208h-80a8 8 0 0 0 0 16h80a8 8 0 0 0 0-16z"/><path d="m288 224h24a8 8 0 0 0 0-16h-24a8 8 0 0 0 0 16z"/><path d="m288 288h80a8 8 0 0 0 0-16h-80a8 8 0 0 0 0 16z"/><path d="m424 272h-24a8 8 0 0 0 0 16h24a8 8 0 0 0 0-16z"/><path d="m288 256h136a8 8 0 0 0 0-16h-136a8 8 0 0 0 0 16z"/><path d="m288 192h136a8 8 0 0 0 0-16h-136a8 8 0 0 0 0 16z"/></svg>