<svg xmlns="http://www.w3.org/2000/svg" viewBox="0 0 500 500"><g id="freepik--Background--inject-36"><path id="freepik--background--inject-36" d="M140.38,36.92c-65,32.83-117.8,86.77-125.93,199.34C7,339.5,31.28,402.66,139.47,455.1,249.15,508.25,380,487.2,445,421.54c58.56-59.18,67.4-172.5.06-283.78C362.13.79,205.37,4.09,140.38,36.92Z" style="fill:#37474f"></path></g><g id="freepik--Shadows--inject-36"><polygon id="freepik--Shadow--inject-36" points="136.81 343.08 87.84 314.75 32.56 346.67 81.53 375 136.81 343.08" style="fill:#263238"></polygon><polygon id="freepik--shadow--inject-36" points="383.2 208.6 329.59 177.54 257.3 219.27 310.92 250.34 383.2 208.6" style="fill:#263238"></polygon><path id="freepik--shadow--inject-36" d="M326.17,450.42l133.43-77c2.32-1.34,2.32-3.51,0-4.85L219.8,230.09a9.28,9.28,0,0,0-8.4,0L78,307.13c-2.31,1.34-2.31,3.51,0,4.85L317.77,450.42A9.28,9.28,0,0,0,326.17,450.42Z" style="fill:#263238"></path></g><g id="freepik--Drawer--inject-36"><g id="freepik--drawer--inject-36"><g id="freepik--drawer--inject-36"><g id="freepik--Cabinet--inject-36"><polygon points="309.47 244.25 265.45 218.83 265.45 112.11 309.47 137.53 309.47 244.25" style="fill:#263238"></polygon><polygon points="309.47 137.53 372.36 101.22 372.36 207.94 309.47 244.25 309.47 137.53" style="fill:#37474f"></polygon><path d="M372.36,101.22l.2,26.68.08,26.68.07,26.68c.05,8.89,0,17.79,0,26.68v.19l-.16.1L341,226.29l-15.76,9-15.8,8.95L325.12,235l15.69-9.14,31.39-18.24-.16.28c0-8.89-.07-17.79,0-26.68l.07-26.68.07-26.68Z" style="fill:#263238"></path><polygon points="372.36 101.22 309.47 137.53 265.45 112.11 328.34 75.8 372.36 101.22" style="fill:#455a64"></polygon><polygon points="315.76 206.12 366.07 177.07 366.07 201.62 367.23 202.29 316.92 231.34 315.76 230.67 315.76 206.12" style="fill:#263238"></polygon><polygon points="316.92 206.78 367.23 177.74 367.23 202.29 316.92 231.34 316.92 206.78" style="fill:#455a64"></polygon><g style="opacity:0.05"><polygon points="316.92 206.78 367.23 177.74 367.23 202.29 316.92 231.34 316.92 206.78"></polygon></g><path d="M336.64,201.32l8.56-4.93c1.11-.65,2-.35,2,.65a4.05,4.05,0,0,1-2,3L336.64,205c-1.11.64-2,.34-2-.66A4.05,4.05,0,0,1,336.64,201.32Z" style="fill:#263238"></path><polygon points="315.76 174.31 366.07 145.26 366.07 169.81 367.23 170.48 316.92 199.53 315.76 198.86 315.76 174.31" style="fill:#263238"></polygon><polygon points="316.92 174.98 367.23 145.93 367.23 170.48 316.92 199.53 316.92 174.98" style="fill:#455a64"></polygon><g style="opacity:0.05"><polygon points="316.92 174.98 367.23 145.93 367.23 170.48 316.92 199.53 316.92 174.98"></polygon></g><path d="M336.64,169.52l8.56-4.94c1.11-.64,2-.35,2,.65a4,4,0,0,1-2,3l-8.56,4.94c-1.11.64-2,.35-2-.65A4,4,0,0,1,336.64,169.52Z" style="fill:#263238"></path><polygon points="315.76 142.5 366.07 113.46 366.07 138 315.76 167.05 315.76 142.5" style="fill:#263238"></polygon></g><g id="freepik--drawer--inject-36"><polygon points="391.01 132.73 363.1 116.63 363.1 137.01 391.01 153.12 391.01 132.73" style="fill:#37474f"></polygon><g style="opacity:0.1"><polygon points="391.01 132.73 363.1 116.63 363.1 137.01 391.01 153.12 391.01 132.73"></polygon></g><path d="M316.7,163.8,363.09,137,391,153.12s-46.4,27.11-46.4,26.79S316.7,163.8,316.7,163.8Z" style="fill:#263238"></path><path d="M332.88,143.72v3.35a1.48,1.48,0,0,0,.74,1.27l24,13.86a1.44,1.44,0,0,0,1.42.15l25.46-14.7a1.22,1.22,0,0,0,.52-1.13,4.15,4.15,0,0,0-1.94-3.22L358.35,129Z" style="fill:#37474f"></path><g style="opacity:0.30000000000000004"><path d="M332.88,143.72v3.35a1.48,1.48,0,0,0,.74,1.27l24,13.86a1.44,1.44,0,0,0,1.42.15l25.46-14.7a1.22,1.22,0,0,0,.52-1.13,4.15,4.15,0,0,0-1.94-3.22L358.35,129Z"></path></g><path d="M357.62,158l-24.74-14.28v3.35a1.48,1.48,0,0,0,.74,1.27l24,13.86c1.07.62,1.94.18,1.94-1A4.16,4.16,0,0,0,357.62,158Z" style="opacity:0.2"></path><path d="M356.49,158.74a1.38,1.38,0,0,1,.64,1.08c0,.38-.28.53-.64.32l-23.61-13.62v-1.4Z" style="opacity:0.2"></path><path d="M385,139.16v3.35a1.48,1.48,0,0,1-.74,1.28l-24,13.85a1.4,1.4,0,0,1-1.41.16L333.4,143.09a1.24,1.24,0,0,1-.52-1.13,4.16,4.16,0,0,1,1.94-3.22l24.74-14.28Z" style="fill:#37474f"></path><path d="M360.29,153.44,385,139.16v3.35a1.48,1.48,0,0,1-.74,1.28l-24,13.85c-1.07.62-1.93.18-1.93-1A4.14,4.14,0,0,1,360.29,153.44Z" style="opacity:0.2"></path><path d="M361.42,154.19a1.39,1.39,0,0,0-.65,1.07c0,.39.29.54.65.33L385,142v-1.4Z" style="opacity:0.2"></path><path d="M332.88,134.32v3.35a1.5,1.5,0,0,0,.74,1.28l24,13.85A1.42,1.42,0,0,0,359,153l25.46-14.71a1.22,1.22,0,0,0,.52-1.13,4.16,4.16,0,0,0-1.94-3.22l-24.73-14.28Z" style="fill:#37474f"></path><path d="M357.62,148.6l-24.74-14.28v3.35a1.5,1.5,0,0,0,.74,1.28l24,13.85c1.07.62,1.94.18,1.94-1A4.16,4.16,0,0,0,357.62,148.6Z" style="fill:#37474f"></path><path d="M357.62,148.6l-24.74-14.28v3.35a1.5,1.5,0,0,0,.74,1.28l24,13.85c1.07.62,1.94.18,1.94-1A4.16,4.16,0,0,0,357.62,148.6Z" style="opacity:0.2"></path><path d="M356.49,149.35a1.38,1.38,0,0,1,.64,1.07c0,.39-.28.54-.64.33l-23.61-13.63v-1.4Z" style="opacity:0.2"></path><polygon points="365.05 115.5 363.1 116.62 391.01 132.73 392.96 131.61 365.05 115.5" style="fill:#455a64"></polygon><polygon points="344.62 159.52 316.7 143.41 316.7 163.8 344.61 179.91 344.62 159.52" style="fill:#37474f"></polygon><polygon points="318.65 142.28 316.7 143.41 344.62 159.52 346.57 158.39 318.65 142.28" style="fill:#455a64"></polygon><polygon points="344.05 157.8 394.36 128.75 394.36 153.3 344.05 182.35 344.05 157.8" style="fill:#455a64"></polygon><path d="M363.77,152.34l8.56-4.94c1.11-.64,2-.35,2,.65a4,4,0,0,1-2,3L363.77,156c-1.11.64-2,.35-2-.66A4,4,0,0,1,363.77,152.34Z" style="fill:#263238"></path><polygon points="344.05 157.8 342.38 156.83 342.38 181.38 344.05 182.35 344.05 157.8" style="fill:#263238"></polygon><polygon points="342.38 156.83 392.69 127.78 394.36 128.75 344.05 157.8 342.38 156.83" style="fill:#37474f"></polygon></g></g><g id="freepik--Pot--inject-36"><path d="M357.15,93.38c4.08,2.35,4.08,6.17,0,8.53a16.31,16.31,0,0,1-14.78,0c-4.08-2.36-4.08-6.18,0-8.53A16.31,16.31,0,0,1,357.15,93.38Z" style="fill:#263238"></path><path d="M343.26,98.17c-3.56-3.63-5.65-12.69-2.18-15.56h17.65c3.46,2.87,1.38,11.93-2.18,15.56l-.1.1-.12.12c-.1.09-.2.19-.32.28l-.08.07-.27.2a3.89,3.89,0,0,1-.46.29,11.69,11.69,0,0,1-10.59,0h0a3.21,3.21,0,0,1-.46-.29l-.25-.19-.11-.08-.31-.28-.14-.14A.3.3,0,0,1,343.26,98.17Z" style="fill:#37474f"></path><path d="M357.19,81.45c4,2.32,4,6.09,0,8.41a16.08,16.08,0,0,1-14.58,0c-4-2.32-4-6.09,0-8.41A16.08,16.08,0,0,1,357.19,81.45Z" style="fill:#455a64"></path><path d="M354.34,83.1c2.45,1.41,2.45,3.7,0,5.12a9.83,9.83,0,0,1-8.87,0c-2.45-1.42-2.45-3.71,0-5.12A9.77,9.77,0,0,1,354.34,83.1Z" style="fill:#37474f"></path><path d="M345.47,85.53a9.77,9.77,0,0,1,8.87,0,4.12,4.12,0,0,1,1.47,1.34,4.23,4.23,0,0,1-1.47,1.35,9.83,9.83,0,0,1-8.87,0A4.14,4.14,0,0,1,344,86.87,4,4,0,0,1,345.47,85.53Z" style="fill:#263238"></path><path d="M368.3,86.42c.13-.87-.09-1.77.05-2.64a9.39,9.39,0,0,1,.65-1.89,4.86,4.86,0,0,0-.08-4.15,12.34,12.34,0,0,0-1.83-2,19.36,19.36,0,0,0-2.68-3,6.15,6.15,0,0,0-8.6,1.46,12.62,12.62,0,0,1-1,1.48c-1,1.15-2.86,1.53-3.61,2.89-.52.94-.38,2.1-.62,3.15-.17.72-.52,1.38-.7,2.1a3.07,3.07,0,0,0,1.48,3.35,1.74,1.74,0,0,0,2.73-.69,12.82,12.82,0,0,0,.46-1.64A5.28,5.28,0,0,1,357,81.7a4.52,4.52,0,0,0,1.89-1.32,10.47,10.47,0,0,0,.47-1.5,2.45,2.45,0,0,1,3-1.41,10.66,10.66,0,0,1,1.87,1.21,10,10,0,0,1,1.34.82c1.17,1,.29,2.83.55,4.12.21,1,.95,1.89.95,2.92,0,.4,0,.92.35,1C368,87.72,368.25,86.8,368.3,86.42Z" style="fill:#263238"></path><path d="M332.11,86.42c-.13-.87.1-1.77,0-2.64a10.06,10.06,0,0,0-.65-1.89,4.86,4.86,0,0,1,.08-4.15,11.9,11.9,0,0,1,1.83-2,19.36,19.36,0,0,1,2.68-3,6.33,6.33,0,0,1,3.86-1.14,6.25,6.25,0,0,1,4.73,2.6,15.58,15.58,0,0,0,1,1.48c1.05,1.15,2.86,1.53,3.62,2.89.52.94.38,2.1.62,3.15.17.72.52,1.38.7,2.1a3.07,3.07,0,0,1-1.48,3.35,1.74,1.74,0,0,1-2.73-.69,12.82,12.82,0,0,1-.46-1.64,5.28,5.28,0,0,0-2.47-3.12,4.52,4.52,0,0,1-1.89-1.32,10.47,10.47,0,0,1-.47-1.5,2.45,2.45,0,0,0-3-1.41,10.66,10.66,0,0,0-1.87,1.21,10.78,10.78,0,0,0-1.35.82c-1.16,1-.28,2.83-.54,4.12-.21,1-.95,1.89-.95,2.92,0,.4,0,.92-.36,1C332.46,87.72,332.17,86.8,332.11,86.42Z" style="fill:#263238"></path><path d="M351.73,64.62a4.62,4.62,0,0,0-2.27,2.73,7.33,7.33,0,0,1-.76,2.42,14.18,14.18,0,0,0-1.41,2.06c-.46,1.11,0,2.37-.14,3.56-.14,1.52-1.19,3-.56,4.56a14.27,14.27,0,0,1,1.4,4,10.36,10.36,0,0,0,.24,2.16,1.71,1.71,0,0,0,1.55,1.3,2.17,2.17,0,0,0,1.42-1,4.89,4.89,0,0,0,.86-1.46c.56-1.65-.28-3.55.4-5.15.22-.5.57-.94.74-1.46a3.53,3.53,0,0,0-.2-2.18,3.26,3.26,0,0,1,.62-2.32,7.39,7.39,0,0,0,1.13-2.35,14.73,14.73,0,0,0,0-2.3,2.37,2.37,0,0,1,.92-2c.64-.39,1.35.08,2.06,0,1-.08,1.95-.13,2.58.78.07.1.19.23.3.16a.27.27,0,0,0,.07-.18,2.44,2.44,0,0,0-.64-2,4.31,4.31,0,0,0-.83-.49,10.69,10.69,0,0,1-1.3-1c-1-.79-2.47-.73-3.69-.69A5.51,5.51,0,0,0,351.73,64.62Z" style="fill:#263238"></path></g><g id="freepik--Picture--inject-36"><polygon id="freepik--shadow--inject-36" points="295.63 120.61 279.89 111.52 311.37 93.35 327.1 102.44 295.63 120.61" style="fill:#263238"></polygon><g id="freepik--Frame--inject-36"><polygon points="296 114.49 297.31 115.12 321.6 101.1 320.29 100.46 296 114.49" style="fill:#263238"></polygon><polygon points="320.29 100.46 297.19 113.8 293.83 79.24 316.93 65.91 320.29 100.46" style="fill:#455a64"></polygon><path d="M320.11,61.49l-28.76,16.6,4,40.76,28.75-16.6Zm1.49,39.61-24.28,14-3.49-35.88,24.28-14Z" style="fill:#37474f"></path><polygon points="321.6 101.1 320.29 100.46 316.93 65.91 318.11 65.22 321.6 101.1" style="fill:#263238"></polygon><polygon points="320.11 61.49 318.78 60.87 290.03 77.47 291.36 78.09 320.11 61.49" style="fill:#455a64"></polygon><polygon points="290.03 77.47 291.36 78.09 295.32 118.85 293.99 118.23 290.03 77.47" style="fill:#263238"></polygon></g><g id="freepik--Land--inject-36"><polygon points="319.27 99.81 297.98 112.1 297.41 106.28 301.37 89.18 305.15 95.02 304.36 99.93 310.66 81.79 318.71 93.98 319.27 99.81" style="fill:#37474f"></polygon><path d="M301,82a3,3,0,0,0-1.4,2.63c.09,1,.87,1.32,1.74.81a3,3,0,0,0,1.41-2.63C302.69,81.84,301.91,81.48,301,82Z" style="fill:#37474f"></path></g></g></g></g><g id="freepik--Pictures--inject-36"><g id="freepik--picture--inject-36"><g id="freepik--frame--inject-36"><polygon points="144.84 107.62 146.3 108.49 176.18 91.24 174.72 90.37 144.84 107.62" style="fill:#263238"></polygon><polygon points="174.72 90.37 146.3 106.78 146.3 77.01 174.72 60.61 174.72 90.37" style="fill:#455a64"></polygon><path d="M178.93,55,143.55,75.42v37.83l35.38-20.43Zm-2.75,36.24L146.3,108.49V77l29.88-17.25Z" style="fill:#37474f"></path><polygon points="176.18 91.24 174.72 90.37 174.72 60.61 176.18 59.76 176.18 91.24" style="fill:#263238"></polygon><polygon points="178.93 55 177.45 54.15 142.07 74.58 143.55 75.42 178.93 55" style="fill:#455a64"></polygon><polygon points="142.07 74.58 143.55 75.42 143.55 113.25 142.07 112.4 142.07 74.58" style="fill:#263238"></polygon></g><g id="freepik--land--inject-36"><polygon points="173.61 89.48 147.41 104.61 147.41 97.05 153.96 81.92 158.04 85.7 156.57 92.04 165.62 72.69 173.61 81.92 173.61 89.48" style="fill:#37474f"></polygon><path d="M157.79,74.61A4.28,4.28,0,0,0,155.86,78c0,1.23.86,1.73,1.93,1.12a4.3,4.3,0,0,0,1.94-3.36C159.73,74.49,158.86,74,157.79,74.61Z" style="fill:#37474f"></path></g></g><g id="freepik--picture--inject-36"><g id="freepik--frame--inject-36"><polygon points="99.45 150.11 100.99 150.67 130.21 128.89 128.67 128.33 99.45 150.11" style="fill:#263238"></polygon><polygon points="128.67 128.33 100.88 149.04 98.91 120.78 126.7 100.08 128.67 128.33" style="fill:#455a64"></polygon><path d="M130.6,94,96,119.77l2.5,35.91,34.6-25.78Zm-.39,34.9L101,150.67l-2.08-29.89L128.13,99Z" style="fill:#37474f"></path><polygon points="130.21 128.89 128.67 128.33 126.7 100.08 128.13 99 130.21 128.89" style="fill:#263238"></polygon><polygon points="130.6 93.99 129.32 93.24 94.73 119.03 96.01 119.77 130.6 93.99" style="fill:#455a64"></polygon><polygon points="94.73 119.03 96.01 119.77 98.51 155.68 97.23 154.94 94.73 119.03" style="fill:#263238"></polygon></g><g id="freepik--land--inject-36"><polygon points="127.48 127.68 101.86 146.78 101.36 139.6 107.02 124.05 111.41 126.91 110.34 133.19 118.25 113.18 126.98 120.5 127.48 127.68" style="fill:#37474f"></polygon><path d="M110.43,116.42a4.6,4.6,0,0,0-1.75,3.54c.08,1.17,1,1.49,2,.71a4.61,4.61,0,0,0,1.74-3.54C112.39,116,111.48,115.64,110.43,116.42Z" style="fill:#37474f"></path></g></g></g><g id="freepik--Bed--inject-36"><g id="freepik--bed--inject-36"><g id="freepik--bed--inject-36"><path d="M105.87,320.21l-15.58-9a6.24,6.24,0,0,1-2.83-4.9V214.75a6.24,6.24,0,0,1,2.83-4.9l127.08-73.37a6.21,6.21,0,0,1,5.66,0l15.58,9a6.24,6.24,0,0,1,2.83,4.9v91.57a6.24,6.24,0,0,1-2.83,4.9L111.53,320.21A6.21,6.21,0,0,1,105.87,320.21Z" style="fill:#455a64"></path><path d="M241.44,150.37v91.57a6.24,6.24,0,0,1-2.83,4.9L111.53,320.21c-1.57.91-2.83.18-2.83-1.63V227a6.25,6.25,0,0,1,2.83-4.9l127.08-73.37C240.18,147.84,241.44,148.57,241.44,150.37Z" style="fill:#263238"></path><path d="M110.87,320.51a6.28,6.28,0,0,1-5-.3l-15.59-9a6.28,6.28,0,0,1-2.82-4.9V214.75a5.81,5.81,0,0,1,.82-2.79l21.25,12.27a5.76,5.76,0,0,0-.83,2.78v91.57C108.7,320.12,109.63,320.88,110.87,320.51Z" style="fill:#37474f"></path><path d="M335.61,409.94l-13.1-7.57a3.14,3.14,0,0,0-2.83,0l-13.1,7.57a2.81,2.81,0,0,0-1,1.05h0c-.05.09-.08.18-.12.27a2.8,2.8,0,0,0-.3,1.13v21.25h0a3.14,3.14,0,0,0,1.31,2.37.87.87,0,0,1,.11.09l13.1,7.56h0a1.15,1.15,0,0,0,.17.06,2.08,2.08,0,0,0,.49.19,3.14,3.14,0,0,0,.75.09,3,3,0,0,0,1.42-.34l13.1-7.56a3.14,3.14,0,0,0,1.41-2.46V412.39A3.11,3.11,0,0,0,335.61,409.94Z" style="fill:#455a64"></path><path d="M322.51,443.66l13.1-7.56a3.14,3.14,0,0,0,1.41-2.46V412.39c0-.91-.63-1.27-1.41-.82l-13.1,7.56a3.13,3.13,0,0,0-1.41,2.45v21.26C321.09,443.74,321.73,444.11,322.51,443.66Z" style="fill:#37474f"></path><path d="M447.12,345.56,434,338a3.1,3.1,0,0,0-2.83,0l-13.11,7.57a2.89,2.89,0,0,0-1,1.05h0c-.05.09-.07.18-.11.27a2.65,2.65,0,0,0-.3,1.13v21.25h0a3.12,3.12,0,0,0,1.31,2.36l.11.09,13.1,7.56h0a.85.85,0,0,0,.17.06,1.92,1.92,0,0,0,.49.19,3.08,3.08,0,0,0,.75.09,3,3,0,0,0,1.42-.34l13.09-7.56a3.13,3.13,0,0,0,1.42-2.45V348A3.11,3.11,0,0,0,447.12,345.56Z" style="fill:#455a64"></path><path d="M434,379.28l13.09-7.56a3.13,3.13,0,0,0,1.42-2.45V348c0-.91-.63-1.27-1.41-.82L434,354.75a3.14,3.14,0,0,0-1.42,2.45v21.26C432.6,379.36,433.23,379.73,434,379.28Z" style="fill:#37474f"></path><path d="M235.78,217.77l-121.42,70.1a12.52,12.52,0,0,0-5.66,9.81v5.37a12.49,12.49,0,0,0,5.66,9.8L315.43,428.94a12.48,12.48,0,0,0,11.32,0l121.43-70.1a12.52,12.52,0,0,0,5.66-9.8v-5.38a12.49,12.49,0,0,0-5.66-9.8L247.1,217.77A12.48,12.48,0,0,0,235.78,217.77Z" style="fill:#455a64"></path><path d="M453.84,343.67V349a12.49,12.49,0,0,1-5.66,9.8L326.76,429a11.61,11.61,0,0,1-5.66,1.34V411.85a11.61,11.61,0,0,0,5.66-1.34L448.18,340.4c2.92-1.7,3.11-4.35.58-6.17A12.65,12.65,0,0,1,453.84,343.67Z" style="fill:#263238"></path><path d="M114.36,294.41c-3-1.71-3.12-4.43-.43-6.24a12.58,12.58,0,0,0-5.23,9.51v5.37a12.49,12.49,0,0,0,5.66,9.8L315.43,428.94a11.54,11.54,0,0,0,5.67,1.36V411.85a11.55,11.55,0,0,1-5.66-1.34Z" style="fill:#37474f"></path><path d="M235.78,187.16,114.36,257.27a12.49,12.49,0,0,0-5.66,9.8v11.45a12.52,12.52,0,0,0,5.66,9.81L315.43,404.42a12.54,12.54,0,0,0,11.32,0l121.43-70.11a12.49,12.49,0,0,0,5.66-9.8V313.06a12.52,12.52,0,0,0-5.66-9.81L247.1,187.16A12.54,12.54,0,0,0,235.78,187.16Z" style="fill:#B84C4C"></path><path d="M114.36,263.8,315.43,379.89a12.48,12.48,0,0,0,11.32,0l121.43-70.1c3.13-1.81,3.13-4.73,0-6.54L247.1,187.16a12.54,12.54,0,0,0-11.32,0L114.36,257.27C111.23,259.07,111.23,262,114.36,263.8Z" style="fill:#fff;opacity:0.8"></path><path d="M191.72,259.41s-14.83,5.89-19.3,7.26-7.63,1.8-10.76,0l-26.41-15.33c-3.13-1.81-3.14-4.33,0-6.14l79.37-46.15,32.15,18.51c3.13,1.8,3.81,2.57,0,6.25C226,243.88,201.51,255.6,191.72,259.41Z" style="opacity:0.05"></path><path d="M453.84,313.06v11.45a12.52,12.52,0,0,1-5.66,9.81l-121.42,70.1a11.61,11.61,0,0,1-5.66,1.35V381.25a11.61,11.61,0,0,0,5.66-1.35l121.42-70.11c2.92-1.7,3.11-4.35.58-6.17A12.65,12.65,0,0,1,453.84,313.06Z" style="fill:#fff;opacity:0.5"></path><path d="M114.36,263.81c-3-1.72-3.12-4.44-.43-6.25a12.6,12.6,0,0,0-5.23,9.51v11.45a12.52,12.52,0,0,0,5.66,9.81L315.43,404.42a11.65,11.65,0,0,0,5.67,1.35V381.25a11.56,11.56,0,0,1-5.66-1.35Z" style="fill:#fff;opacity:0.6000000000000001"></path><path d="M245.89,218.07c.68-3.79-2.67-10.47-7.48-14.93l-19.36-17.93c-2.69-2.49-5.27-3.76-7.14-3.73l0,0c-4.79-.37-26,9.86-36.7,16s-34.15,21.11-38.6,27.87c-1.46,2.22,29.45,39,34.2,38.11,10.56-1.9,30.75-11.47,41.39-17.95,17.38-10.6,27.79-19.74,31.58-23.68C245.57,219.93,245.74,218.87,245.89,218.07Z" style="fill:#fafafa"></path><path d="M143.3,241.94l19.36,17.93c4.81,4.46,9.27,5,10,1.21s-2.67-10.47-7.48-14.93l-19.36-17.93c-4.81-4.45-9.26-5-10-1.21S138.49,237.48,143.3,241.94Z" style="fill:#ebebeb"></path><path d="M227.49,329.15v42.92l93.61,54V381.25a11.67,11.67,0,0,1-5.67-1.36Z" style="fill:#B84C4C"></path><path d="M227.49,329.15v42.92l93.61,54V381.25a11.67,11.67,0,0,1-5.67-1.36Z" style="opacity:0.30000000000000004"></path><path d="M448.18,309.79c2.92-1.7,3.11-4.35.58-6.17a12.65,12.65,0,0,1,5.08,9.44v36.38L321.1,426.08V381.25a11.74,11.74,0,0,0,5.66-1.35Z" style="fill:#B84C4C"></path><path d="M448.18,309.79c2.92-1.7,3.11-4.35.58-6.17a12.65,12.65,0,0,1,5.08,9.44v36.38L321.1,426.08V381.25a11.74,11.74,0,0,0,5.66-1.35Z" style="opacity:0.45"></path><path d="M448.18,303.25,301.71,218.69c-65.19,37.64-21.62,80-74.22,110.46l87.94,50.74a12.48,12.48,0,0,0,11.32,0l121.43-70.1C451.31,308,451.31,305.06,448.18,303.25Z" style="fill:#B84C4C"></path><path d="M448.18,303.25,301.71,218.69c-65.19,37.64-21.62,80-74.22,110.46l87.94,50.74a12.48,12.48,0,0,0,11.32,0l121.43-70.1C451.31,308,451.31,305.06,448.18,303.25Z" style="opacity:0.2"></path><polygon points="248.73 341.42 248.73 384.42 251.39 385.87 251.39 342.95 248.73 341.42" style="opacity:0.2"></polygon><path d="M248.73,341.42c47.1-29.28,17.31-69.41,30-105.21a50.5,50.5,0,0,1,3.73-3.67C268.79,275,299.77,314.83,251.39,343Z" style="opacity:0.1"></path></g></g></g><g id="freepik--Nightstand--inject-36"><g id="freepik--nightstand--inject-36"><g id="freepik--nightstand--inject-36"><polygon points="122.97 347.14 115.52 342.83 122.97 340.68 122.97 347.14"></polygon><polygon points="85.64 362.24 85.64 369.1 42.68 344.24 42.68 337.38 85.64 362.24"></polygon><polygon points="38.95 283.59 81.92 308.45 81.92 364.39 38.95 339.53 38.95 283.59" style="fill:#263238"></polygon><polygon points="81.92 308.45 130.43 280.44 130.43 336.38 81.92 364.39 81.92 308.45" style="fill:#37474f"></polygon><polygon points="130.43 280.44 87.46 255.58 38.95 283.59 81.92 308.45 130.43 280.44" style="fill:#455a64"></polygon><polygon points="85.64 310.6 126.7 286.9 126.7 299.81 85.64 323.51 85.64 310.6" style="fill:#455a64"></polygon><polygon points="85.64 327.81 126.7 304.11 126.7 334.23 85.64 357.94 85.64 327.81" style="opacity:0.2"></polygon><polygon points="85.64 369.1 89.37 366.95 89.37 360.09 85.64 362.24 85.64 369.1" style="fill:#263238"></polygon><polygon points="122.97 347.14 126.7 344.99 126.7 338.53 122.97 340.68 122.97 347.14" style="fill:#263238"></polygon><path d="M98.37,306c0,.59,1.78,0,4-1.22l7-4c2.19-1.27,4-2.78,4-3.37v-1.08l-14.9,8.61Z" style="fill:#37474f"></path><polygon points="126.7 334.23 100.79 319.07 85.64 327.81 85.64 357.94 126.7 334.23" style="opacity:0.2"></polygon></g><path d="M90.73,307.67l.75-.43c2.8.29,5.18,3.38,6.65,2.79s2.61-7.33,2.29-7.95S91,306.07,90.73,307.67Z" style="fill:#fafafa"></path><g id="freepik--Lamp--inject-36"><path d="M72.87,284.3a4.26,4.26,0,0,0-.09-.86,12.85,12.85,0,0,0-5.24-7.81h-11a12.86,12.86,0,0,0-5.25,7.81,3.63,3.63,0,0,0-.08.86c0,.05,0,.15,0,.15.1,1.52,1.14,3,3.15,4.17a16.88,16.88,0,0,0,15.29,0c2-1.16,3-2.65,3.14-4.17A1.09,1.09,0,0,0,72.87,284.3Z" style="fill:#263238"></path><path d="M56.87,275.45c-2.87,1.66-2.87,4.34,0,6a11.46,11.46,0,0,0,10.39,0c2.87-1.66,2.87-4.34,0-6A11.46,11.46,0,0,0,56.87,275.45Z" style="fill:#37474f"></path><path d="M63.56,222.53h-3V277.3h0A.71.71,0,0,0,61,278a2.37,2.37,0,0,0,2.11,0,.7.7,0,0,0,.42-.69h0Z" style="fill:#263238"></path><path d="M83.38,221.24h0l-10-25.6H50.78l-10,25.6h0c-1.43,4,.53,8.33,5.92,11.44,8.5,4.91,22.29,4.91,30.79,0C82.84,229.57,84.81,225.24,83.38,221.24Z" style="fill:#455a64"></path><path d="M53.9,201.77c4.51,2.6,11.82,2.6,16.33,0s4.51-6.83,0-9.43-11.82-2.6-16.33,0S49.39,199.17,53.9,201.77Z" style="fill:#455a64"></path><path d="M53.9,192.34a9.47,9.47,0,0,0-2,1.62,5.06,5.06,0,0,0-1.16,2.22,3.91,3.91,0,0,0,.26,2.43,5.9,5.9,0,0,0,1.52,2c2.64,2.14,6.17,2.88,9.53,2.9s6.9-.76,9.53-2.9a5.9,5.9,0,0,0,1.52-2,3.77,3.77,0,0,0,.26-2.43A5,5,0,0,0,72.21,194a9.67,9.67,0,0,0-2-1.62,9.69,9.69,0,0,1,2.07,1.54,5.14,5.14,0,0,1,1.31,2.24,4.11,4.11,0,0,1-.21,2.61,6.29,6.29,0,0,1-1.55,2.13,12,12,0,0,1-4.63,2.39,18.85,18.85,0,0,1-10.32,0,12,12,0,0,1-4.62-2.39,6.16,6.16,0,0,1-1.55-2.13,4,4,0,0,1-.21-2.61,5.14,5.14,0,0,1,1.31-2.24A9.22,9.22,0,0,1,53.9,192.34Z" style="fill:#37474f"></path><path d="M62.06,202.08A14.38,14.38,0,0,1,55,200.41c-1.65-.95-2.56-2.15-2.56-3.36s.91-2.4,2.56-3.35A14.38,14.38,0,0,1,62.06,192a14.39,14.39,0,0,1,7.08,1.67c1.65,1,2.56,2.14,2.56,3.35s-.91,2.41-2.56,3.36A14.39,14.39,0,0,1,62.06,202.08Z" style="fill:#37474f"></path></g></g></g><g id="freepik--Character--inject-36"><path id="freepik--shadow--inject-36" d="M191.88,206.41a12.87,12.87,0,0,0-8,11.64,23.49,23.49,0,0,1,0,3.56c-.37,2.32-1.66,4.24-1.65,6.66a12.5,12.5,0,0,0,2,6.52c2.09,3.34,5.94,5,9.78,5.36,2.93.29,6-.23,8.76.75a63.82,63.82,0,0,0,6.19,2.16,13.5,13.5,0,0,0,6.94.06,8,8,0,0,0,5.19-4.38c1.32,1.07.82,3.15.41,4.8a19.35,19.35,0,0,0,1.84,13.81c1.7,3.09,4.31,5.81,4.91,9.29A18.13,18.13,0,0,1,213,261.55c-.92-.92-1.66-2-2.56-2.92s-2.06-1.91-2.93-3a47.08,47.08,0,0,1-2.7-4.12c-.44-.67-1.28-3-2.29-2a1.8,1.8,0,0,0-.46.86c-.7,2.31.17,5,1.33,7A2.58,2.58,0,0,1,204,259c-.31,1.87-3.77.72-4.83.41-2.64-.75-4.9-2.86-7.15-4.44a5.43,5.43,0,0,0-3.15-1.33,1.37,1.37,0,0,0-1.38.91c-.17.83.84,1.39,1.23,2.15s0,2,.34,3c.21.68.76,1.22,1,1.89a6.33,6.33,0,0,1,.2,1.44c.38,4,3.28,7.48,6.45,9.63a34.92,34.92,0,0,0,11.23,4.69c3.77.94,7.6,1.66,11.39,2.52A52.28,52.28,0,0,1,229.73,284a1,1,0,0,1,.4.3.86.86,0,0,1,0,.67,28.6,28.6,0,0,0-1.27,7.5,11.69,11.69,0,0,0,2.37,6.06,24.76,24.76,0,0,0,6.95,6.37,103.71,103.71,0,0,0,11.88,7c3.22,1.6,6.53,3,9.81,4.51q13.9,6.21,27.42,13.23c7.83,4.07,15.29,8.72,19.52,16.8a15,15,0,0,0,1.76,2.93c1.09,1.24,2.74,2.05,4.27,1.12,1.32-.8,2.22-2.55,2.91-3.89a18.72,18.72,0,0,0,2.05-10.26c-.08-.94-.24-1.88-.35-2.82-.34-3.08.42-6.11.25-9.16a21.64,21.64,0,0,0-1.87-8.74,32.6,32.6,0,0,1-1.55-3c-.43-1.12-.56-2.35-1-3.45-1.34-3.07-5.22-3.92-8.15-4.71a52,52,0,0,1-9.4-3.4,36.16,36.16,0,0,1-4.2-2.81,11.86,11.86,0,0,0-1.65-1.13c2.68-1.81,5.75-3.89,8.26-5.93a32,32,0,0,0,7.7-9.82,24.89,24.89,0,0,0,0-21.19c-3.77-8.62-8.9-14.49-16.32-20.28-12.42-9.7-25.53-13.44-40-15.42-5.12-.71-10.3-1.1-15.33-2.32-11.88-2.89-22.17-10.2-33.55-14.72C198.22,206.47,194.33,205.46,191.88,206.41Z" style="opacity:0.15"></path><g id="freepik--character--inject-36"><g id="freepik--Top--inject-36"><path d="M224.69,237.76c-1.5,5.09-1.69,10.41.72,15.68s10.94,21.15,10.94,21.15l14.32-6.2-12.94-22.64Z" style="fill:#ffa8a7"></path><path d="M224.29,264.85c-3.85-.9-7.71-2.23-10-5.49a28.38,28.38,0,0,0-2.89-3.8,54.37,54.37,0,0,0-4.33-3.31,15.46,15.46,0,0,1-2.14-2.14c-.28-.34-.74-.74-1.1-.49a.71.71,0,0,0-.22.27,4.38,4.38,0,0,0,0,3.74c.49,1.19,1.24,2.26,1.73,3.46.22.51.59,1.61.19,2.13s-1.75.24-2.33.08a27.88,27.88,0,0,1-6-2.11c-.7-.36-3.22-2.12-3.83-2.59l-.3-.22a4.6,4.6,0,0,0-3.09-1,1.08,1.08,0,0,0-.35.1.71.71,0,0,0-.29.73,2.15,2.15,0,0,0,.33.76c.25.43.49.86.71,1.29s.53.82.31,1.45a4.2,4.2,0,0,0-.35,1.18c0,.8.7,1.33,1,2s-.07,1.55.35,2.35a4.39,4.39,0,0,0,1.09,1.26,3.52,3.52,0,0,1,.55.54,9.93,9.93,0,0,1,.78,2.12c.55,1.23,1.8,1.65,2.85,2.33a29.24,29.24,0,0,0,4.12,2.23,30.42,30.42,0,0,0,8.88,2.43c1,.11,2,.27,3,.39a14.06,14.06,0,0,1,3.71.71c4.34,1.58,16.45,5.92,19.48,6.67q3.42.84,6.85,1.63l.76-15.77A145.77,145.77,0,0,1,224.29,264.85Z" style="fill:#ffa8a7"></path><path d="M238.73,210.94a76.55,76.55,0,0,0-6.68,8.37c-1.82,2.89-6.53,13.29-7.36,18.45A49.4,49.4,0,0,0,231,251.08c4.2,6.36,6.92,10.19,10.36,11.18,7.22,2.1,10-2.74,10-2.74,4.13,2.61,7.34,4.36,9.59,5.52a38.73,38.73,0,0,0,17.92-13.24c4.63-6.36,14.16-11.3,19.45-12.1-4.75-7.8-15.69-17.86-20.19-20.94a76.52,76.52,0,0,0-19.37-9.7C244.75,204.68,242.23,209.14,238.73,210.94Z" style="fill:#B84C4C"></path><path d="M222.05,236.48a3.49,3.49,0,0,0-1.16-4.17c-1.46-1-7.63-3.15-10.08-3.14a11.73,11.73,0,0,0-5.87,1.6c-1.69,1,.37,4.64-1.51,5.35-10.31,3.85-16.27-2.63-17.29-6.07s-.94-7,.69-8.4c-1.47-2.58-1.28-6.41-.25-9.18,3.9-10.57,10.44-11.67,12.58-11.4a9.78,9.78,0,0,1,2.8-2.74c3-1.8,5.33-2.16,9.47-1.67,2.44.29,5.64,1.22,11.58,4.82,3,1.83,5.46,3.81,8.83,4.87a3.18,3.18,0,0,1-2.8,1.15c3,1.52,4.65,3.49,5,6.86a5.08,5.08,0,0,0-3.78-1.55c1.28,1,2.51,3.36,1,5.19a5.55,5.55,0,0,1-2.81,1.74,20.57,20.57,0,0,1-2.79.56c-2.56.36-.78,3.62-.45,5a19.49,19.49,0,0,1,.29,6.44A5.3,5.3,0,0,1,222.05,236.48Z" style="fill:#263238"></path><path d="M195,231.7a28,28,0,0,0,3.17,2,60.53,60.53,0,0,0,6.76,3.21c8.26,3.24,11.9,1.86,13.87.15a13.61,13.61,0,0,0,3.65-6.64l4.79,2.44s2.93,8.39,7.74,2.61a12.8,12.8,0,0,0,2.41-10.52,14.79,14.79,0,0,0-3.15-6.18L223.33,213a4.51,4.51,0,0,0,1.12-5.53c-1.44-3.24-4.3-5-7.12-4s-4.06,4.53-2.06,7.44c1.42,2.07-.49,2.41-2.79,1.35s-3.81.43-5.34.67c-5.17.81-5.59-1.55-9-.16-1.94.8-4.1,4.34-3.2,8.14C190.59,222.86,189.87,227.92,195,231.7Z" style="fill:#ffa8a7"></path><path d="M207.75,219a1.59,1.59,0,1,1-1.46,2.82c-.78-.4-.37-1.09,0-1.87S207,218.58,207.75,219Z" style="fill:#263238"></path><path d="M202.26,228.66a1.59,1.59,0,0,1-.84,3.06c-.85-.23-.59-1-.36-1.84S201.41,228.43,202.26,228.66Z" style="fill:#263238"></path><path d="M214.29,229.26a2.06,2.06,0,0,1-.45-.79,3.11,3.11,0,0,1-.13-1.09,2.05,2.05,0,0,1,1-1.77.2.2,0,0,1,.17,0,.17.17,0,0,1,.1.17,9.72,9.72,0,0,1-.38,1,3.73,3.73,0,0,0-.12.94,2.41,2.41,0,0,0,.15.89c.1.22.24.43.34.66,0,.08.1.21.05.3a.2.2,0,0,1-.24.07A1.4,1.4,0,0,1,214.29,229.26Z" style="fill:#b16668"></path><path d="M198.36,226.54l-.92,3.16a1.57,1.57,0,0,0,2-1A1.73,1.73,0,0,0,198.36,226.54Z" style="fill:#263238"></path><path d="M204.89,215.84l-2.27,2.39a1.59,1.59,0,0,0,2.3,0A1.74,1.74,0,0,0,204.89,215.84Z" style="fill:#263238"></path><polygon points="202.62 223.71 211.46 228.37 207.62 232.31 202.62 223.71" style="fill:#f28f8f"></polygon><path d="M222.47,230.4c1.44-6.78.78-12-1.22-14.23a7,7,0,0,1,3.79,5.07c.59,3.84-.92,10-.92,10Z" style="fill:#f28f8f"></path></g><g id="freepik--Bottom--inject-36"><path d="M310.92,343.28a3.54,3.54,0,0,1,.16.34,4,4,0,0,0,1.16,1.74,2.39,2.39,0,0,0,2.91-.48,5.86,5.86,0,0,0,1.36-2.86c.8-3.27,1.44-7.55,0-10.72-1.26-2.71-4-4.33-6.34-6.21a26,26,0,0,1-5.74-6.53c-.83-1.35-1.68-2.9-3.2-3.34a7.6,7.6,0,0,0-2.43-.08,11.18,11.18,0,0,1-5.4-1.32l-.79-.38c-4-2.27-13.82-9.46-16.14-11.28l-7.67,13.92c5.08,2.11,17,7.63,20.85,9.21a53.13,53.13,0,0,1,6.89,3.71,52.23,52.23,0,0,1,6.79,4.74A28.54,28.54,0,0,1,310.92,343.28Z" style="fill:#ffa8a7"></path><path d="M301.68,249.5c7.34,10.38,7.67,25.55-4.81,37.15-15.49,14.39-51.52,15.68-59,10.76s-8.21-15.75,10.41-23.73c10-4.28,18.74-5.17,30.26-6.39C280.63,265.37,299.7,247,301.68,249.5Z" style="fill:#263238"></path><path d="M232.88,288.53c-.29,5,2.48,12.28,18.09,19.8,14.18,6.84,22.47,10.49,22.47,10.49a21.4,21.4,0,0,0,9.18-12.62l-11.79-9.47c-6.83-5.47-25.23-15.19-33.62-16.15A11,11,0,0,0,232.88,288.53Z" style="fill:#37474f"></path><path d="M248.31,273.68c10-4.28,18.84-9.43,30.37-10.65,2.06-1.92,23-10.29,23-10.29" style="fill:#263238"></path><path d="M310,344.23a4.5,4.5,0,0,0,2.42,2.67c1.7.56,3.4-1,4.06-2a15.41,15.41,0,0,0,2.21-6.14c.45-3.45.47-6.08-1-8.51-1.3-2.1-3.11-3.22-5-4.79-1.66-1.38-3.58-2.41-5.1-4s-2.06-3.67-3.22-5.41c-1.45-2.17-3.49-3.49-6.16-2.73s-3,.43-4.1,0c-1.3-.56-1.47.1-1.47.1l.79.38c1.66,1.92-1.64,10.51-2.81,11.7l-.94-.23s-.33.68.75,1.12c5.26,2.12,11.38,7,15.28,11A20.37,20.37,0,0,1,310,344.23Z" style="fill:#e0e0e0"></path><path d="M318.78,333.59a3.58,3.58,0,0,0-2.86-.72c-1.91.4-6.24,4.23-7.51,8.24a21.52,21.52,0,0,1,1.54,3.12,4.5,4.5,0,0,0,2.42,2.67c1.7.56,3.4-1,4.06-2a15.41,15.41,0,0,0,2.21-6.14A19.52,19.52,0,0,0,318.78,333.59Z" style="fill:#B84C4C"></path><path d="M304.31,316.1c-1.45-2.17-3.49-3.49-6.16-2.73l-.7.18c1,3,4.22,6.72,8.46,5.56A28.78,28.78,0,0,0,304.31,316.1Z" style="fill:#B84C4C"></path><path d="M307.49,333.34a3.46,3.46,0,0,0,2.35-.55,9.15,9.15,0,0,0,3.36-4.65,18.72,18.72,0,0,0,1.36-5.35,10.44,10.44,0,0,0-.94-5.4,22.17,22.17,0,0,0-2.53-3.59,11.15,11.15,0,0,1-1.73-2.94,12.07,12.07,0,0,1-.31-1.45c-.13-.57-.31-1.14-.44-1.72a12.24,12.24,0,0,0-1.33-4.23c-1.43-2.17-4.09-2.66-6.39-3.41-.56-.19-1.12-.36-1.69-.54l-.83-.42c-4.15-2-16.84-10.55-19.25-12.22L272.3,302c5.2,1.81,15.95,5.8,19.45,7.46a18,18,0,0,1,4,2.4,24.31,24.31,0,0,1,5,6.41,41.18,41.18,0,0,1,2.35,4.87,13.82,13.82,0,0,1,.65,2.45,43.06,43.06,0,0,0,1,5A4,4,0,0,0,307.49,333.34Z" style="fill:#ffa8a7"></path><path d="M298.37,299.09c1,2.33-2.5,10.94-4,11.72l-1-.57s-.45.6,1,1.49A21.72,21.72,0,0,1,299,316.4c1,1.36,3.51,5.91,4,8.11s1.29,6.49,1.69,9,4.49,3.38,7.44-.89a16.44,16.44,0,0,0,2.83-13.12c-1-4.43-3-5.74-4.41-7.71s-1.13-4.29-1.87-6.79-1.29-4-4-4.69-5.08-1.21-6.07-1.86-1.42,0-1.42,0Z" style="fill:#f5f5f5"></path><path d="M309.35,308.62a31.75,31.75,0,0,0-.71-3.66c-.74-2.51-1.29-4-4-4.69l-2.37-.58C302.05,303.11,304.41,308.51,309.35,308.62Z" style="fill:#B84C4C"></path><path d="M312.57,324.59c-2.24-.19-5.44,2-8.35,6.4.16.91.31,1.77.43,2.48.4,2.46,4.49,3.38,7.44-.89a18.07,18.07,0,0,0,2.79-6.21A2.29,2.29,0,0,0,312.57,324.59Z" style="fill:#B84C4C"></path><path d="M302.14,245.92c5.53,13.84,2.74,24.82-4.33,31.49-12.52,11.82-52.66,10.87-60.51,6.61s-6.84-13.7,11-23.27c9.58-5.14,18.63-8.54,30.85-11.92,1.89-2.09,12.15-9.71,18.79-9.71A35.84,35.84,0,0,1,302.14,245.92Z" style="fill:#455a64"></path><path d="M246.43,272c3.88-1.63,21.25,1.68,30.25,4.76,7.63,2.62,15.35,1.74,21.48-6.44a28.52,28.52,0,0,0,5.45-20.17c3.7,11.15.46,21.32-5.8,27.23-8.1,7.65-27.78,9.95-42.79,9.46Z" style="fill:#37474f"></path><path d="M232.61,276.83c-.22,5,3.69,11.48,18.16,17.05,14.69,5.65,25.53,10.27,25.53,10.27a30.76,30.76,0,0,0,7.32-14.9s-4.5-2.94-11.77-7.8S257,272.21,248.53,272,232.61,276.83,232.61,276.83Z" style="fill:#455a64"></path></g><path id="freepik--Arm--inject-36" d="M267.38,249.27l-18.26-19s-11.46-11-11.15-18.53c5.65-6.59,12.2-6.8,19-2.09s22.64,27.26,25.17,31.13c3,4.53,4.9,6.8,1.44,13.46-6.55,12.58-10,15.68-14.79,23.93a108.39,108.39,0,0,0-5.64,11.18c-1.71,3.57-3.38,7.2-6.11,10.13-.19.21-.39.42-.6.62a3.45,3.45,0,0,1-2.43,1.26,2.63,2.63,0,0,0-.84,0,1.9,1.9,0,0,0-.49.3,3.87,3.87,0,0,1-3.24.79,3.31,3.31,0,0,0-.88-.2,2.56,2.56,0,0,0-.88.27,4.17,4.17,0,0,1-4-.11c-.35-.25-.73-.7-1.15-.8a3.53,3.53,0,0,0-1.51.13c-.51.12-1,.25-1.53.4a2.46,2.46,0,0,1-.88.14.78.78,0,0,1-.69-.5,1,1,0,0,1,0-.39,5,5,0,0,1,1.89-2.95l.31-.25c.66-.51,3.15-2.68,3.73-3.29a25.92,25.92,0,0,0,4.15-5.69c.32-.56.7-1.8.2-2.44s-1.68-.46-2.28-.37c-1.37.19-2.69.69-4.06.87a4.69,4.69,0,0,1-3.91-.94.81.81,0,0,1-.22-.3c-.17-.45.37-.82.8-1a15.61,15.61,0,0,0,2.81-1.66c1.57-1.16,2.93-2.62,4.61-3.62a30.31,30.31,0,0,1,4.73-2c4-1.54,6.44-5.21,8.41-9A157.15,157.15,0,0,0,267.38,249.27Z" style="fill:#ffa8a7"></path></g></g></svg>