<svg xmlns="http://www.w3.org/2000/svg" viewBox="0 0 500 500"><defs><style>.cls-1{fill:#f5fdff;}.cls-2{fill:#fff;}.cls-3{fill:#127681;}.cls-4{fill:#0f6069;}.cls-5{fill:#0c4d54;}.cls-6{fill:#b1def2;opacity:0.6;}.cls-7{fill:#f4f6ff;}.cls-8{fill:#0a5b63;}.cls-9{fill:#ffa785;}.cls-10{fill:#0a2238;}.cls-11{fill:#10375c;}.cls-12{fill:#f3c623;}.cls-13{fill:#f3ae23;}.cls-14{fill:#8e4136;}.cls-15{fill:#c16b5b;}.cls-16{fill:#cc7656;}.cls-17{fill:#2aafbd;}.cls-18{fill:#fe9875;}</style></defs><g id="BACKGROUND"><rect class="cls-1" width="500" height="500"/></g><g id="OBJECTS"><path class="cls-2" d="M331.27,100.92c-88-43.84-203.71-.86-242.06,76.14s1.92,175,90,218.81,190.49,17,228.84-60S419.31,144.77,331.27,100.92Z"/><path class="cls-3" d="M357.5,358.28a78.93,78.93,0,0,1-.33-27.55,53.59,53.59,0,0,1,5.24-17.19A28,28,0,0,1,375,301.07c5.48-2.49,12.19-2.58,17.36.49a20.68,20.68,0,0,1,8.55,11.31,44.67,44.67,0,0,1,1.9,14.29,108.87,108.87,0,0,1-5.61,34.56c-2.12,6.31-5,12.62-9.89,17.07-4.41,4-10.6,6-16.43,4.52-5.19-1.33-8.31-9.67-10.15-14.21A60.73,60.73,0,0,1,357.5,358.28Z"/><path class="cls-4" d="M393.51,342.5c3.53-5.42,7.79-10.47,13.19-14s12.05-5.49,18.42-4.41a18.07,18.07,0,0,1,9.15,4.32c3.23,3,5.06,7.22,6,11.52a34.51,34.51,0,0,1-6.05,27.41c-6,8-15.1,12.94-24.08,17.31-5.08,2.46-10.36,4.88-16,5.64-4.11.55-10.31.48-12.77-3.62-1.8-3-.5-8-.06-11.23a81.13,81.13,0,0,1,4-16.26A79.09,79.09,0,0,1,393.51,342.5Z"/><path class="cls-4" d="M354.85,342c-1.84-4.19-4.08-8.31-7.4-11.48s-7.85-5.28-12.41-4.85c-4.94.47-9.31,3.94-11.58,8.35a23.2,23.2,0,0,0-1.8,14.52,50.93,50.93,0,0,0,5,14c3.33,6.7,7.32,13.21,12.87,18.22A32.25,32.25,0,0,0,351,387.48c2.69.88,8.21,2.74,9.94-.58,1.86-3.56,1-10.13.91-14A85.28,85.28,0,0,0,360,358,83.72,83.72,0,0,0,354.85,342Z"/><path class="cls-5" d="M368.38,420.07q-1.65-11.28-4.42-22.37t-6.61-21.83q-3.81-10.68-8.66-21T337.94,334.8c-.5-.82-1-1.63-1.5-2.45s-1.8-.06-1.29.76q5.94,9.61,10.91,19.78A226.13,226.13,0,0,1,355,373.78q3.93,10.59,6.8,21.54t4.67,22.1a225.93,225.93,0,0,1,2.45,22.47l.15,2.87c0,.95,1.54,1,1.49,0Q370,431.36,368.38,420.07Z"/><path class="cls-5" d="M421.9,331.94a158,158,0,0,0-16.69,17.63,164.16,164.16,0,0,0-13.85,19.94,166.18,166.18,0,0,0-10.8,21.86,162.49,162.49,0,0,0-7.45,23.11,159.1,159.1,0,0,0-3.89,24c-.09,1-.16,2-.23,3s1.43.95,1.5,0a156,156,0,0,1,3.43-23.84,163.61,163.61,0,0,1,30.6-64.78A158.12,158.12,0,0,1,420.75,335c.73-.69,1.47-1.36,2.21-2S422.61,331.29,421.9,331.94Z"/><path class="cls-5" d="M381.67,308.81q-3,12.76-5.25,25.67t-3.87,25.85q-1.59,13-2.5,26.07T369,412.58q-.21,13.1.29,26.19c0,1.07.08,2.15.13,3.22s1.54,1,1.49,0q-.57-13-.46-26.06t.92-26.05q.81-13,2.3-26t3.71-26q2.19-12.84,5.06-25.57l.72-3.14C383.33,308.27,381.89,307.87,381.67,308.81Z"/><path class="cls-4" d="M122.55,419.86c1.48-3.09,2.55-6.59,1.72-9.91s-4.11-6.19-7.46-5.52c-2.2.44-3.86,2.19-5.83,3.27s-5,1.17-5.93-.86a3.75,3.75,0,0,1,.83-3.86,21.66,21.66,0,0,1,3.19-2.68,14.92,14.92,0,0,0,5.47-11.24c0-3.09-1.55-6.73-4.62-7-2.46-.22-4.47,1.81-6.21,3.57s-4.17,3.51-6.48,2.63c-2.06-.79-2.86-3.45-2.31-5.58s2.11-3.85,3.62-5.46,3.09-3.27,3.75-5.37a7.08,7.08,0,0,0-8-9.08c-4.92.84-7.79,6.51-12.65,7.7-2.83.69-5.78-.28-8.48-1.37s-5.48-2.33-8.39-2.19-6,2.23-6.07,5.15,2.57,5,5.24,6,5.6,1.13,8.12,2.42,4.55,4.33,3.36,6.9c-1,2.17-3.73,2.9-6.12,3s-4.92-.23-7,.87A7,7,0,0,0,59,398.76a9.84,9.84,0,0,0,5.6,6.51,17.16,17.16,0,0,0,8.69,1.27c2.08-.17,4.19-.56,6.21-.08s4,2.17,3.87,4.25c-.11,2.48-2.87,3.93-5.31,4.38s-5.17.51-7,2.19c-2.52,2.33-1.83,6.8.68,9.15s6.15,3,9.58,3,6.89-.44,10.28.12c7.22,1.18,13.15,6.62,14.06,13.88l13.93,0a18.5,18.5,0,0,1-1.48-14.38C119.16,425.84,121.07,422.94,122.55,419.86Z"/><path class="cls-5" d="M112,440c-2.28-9-6.06-17.5-10.27-25.73s-9-16.42-13.11-24.8A139,139,0,0,1,82.37,375c-.22-.6-1.19-.34-1,.27,3.17,8.76,7.46,17.05,11.87,25.24s9,16.36,12.68,24.93a100.31,100.31,0,0,1,5.12,14.86A.5.5,0,0,0,112,440Z"/><path class="cls-5" d="M104.91,422.41a75.06,75.06,0,0,1-22.73-1c-.63-.13-.9.83-.27,1a75.88,75.88,0,0,0,23,1.07C105.55,423.34,105.55,422.34,104.91,422.41Z"/><path class="cls-5" d="M117.62,409.49a29.62,29.62,0,0,1-13.88,8.95.5.5,0,0,0,.27,1,30.76,30.76,0,0,0,14.32-9.21C118.75,409.71,118,409,117.62,409.49Z"/><path class="cls-5" d="M92.77,398.88a94.46,94.46,0,0,1-21.19-.44c-.63-.08-.9.88-.26,1a96.17,96.17,0,0,0,21.45.47C93.41,399.82,93.42,398.82,92.77,398.88Z"/><path class="cls-5" d="M106.63,389.39a38.82,38.82,0,0,1-12.24,12c-.55.34,0,1.2.5.86a39.88,39.88,0,0,0,12.61-12.32C107.85,389.35,107,388.85,106.63,389.39Z"/><path class="cls-5" d="M81.6,374.47a59,59,0,0,1-15.2-2.55c-.61-.19-.88.78-.26,1a60.13,60.13,0,0,0,15.46,2.58C82.24,375.49,82.24,374.49,81.6,374.47Z"/><path class="cls-5" d="M94.6,366.09a50,50,0,0,1-11.85,11.42c-.53.36,0,1.22.51.86A51.89,51.89,0,0,0,95.47,366.6C95.85,366.08,95,365.58,94.6,366.09Z"/><path class="cls-3" d="M129,386.19c2.34-2.66,6.52-3.77,9.64-2.07,2.22,1.22,3.57,3.53,5.26,5.42s4.28,3.49,6.65,2.58c2.75-1.06,3.32-5,2-7.59s-4-4.33-6.26-6.17c-3.33-2.66-6.32-5.94-7.82-9.94s-1.3-8.79,1.26-12.2,7.71-4.89,11.36-2.69c1.5.9,2.63,2.29,4,3.3s3.38,1.61,4.88.72c1.89-1.12,1.9-4,.7-5.85s-3.21-2.94-5-4.21-3.54-3-3.74-5.16c-.28-3.26,3.24-5.84,6.51-5.79s6.21,1.91,8.91,3.76,5.52,3.83,8.78,4.16,6.24-1,9.13-2.28,5.89-2.72,9.06-2.68,6.59,2.06,7,5.21c.41,2.81-1.67,5.49-4.2,6.78s-5.44,1.54-8.25,1.93-5.75,1-7.91,2.86-3.19,5.29-1.55,7.61c1.2,1.68,3.4,2.32,5.46,2.5s4.17,0,6.15.61c4.82,1.46,7.33,7.9,4.76,12.24-1.68,2.83-4.89,4.43-8.08,5.25s-6.53,1.05-9.7,2-6.31,2.71-7.75,5.67-.46,7.21,2.61,8.42c2.4.95,5.06-.13,7.63-.29a10.63,10.63,0,0,1,8.83,17.39c-3,3.56-7.85,4.8-12.45,5.24s-9.36.3-13.69,1.91a18.22,18.22,0,0,0-11.36,18.65H138.66c5.14-7.33,7.14-19,2.44-26.61-2.58-4.19-6.43-7.44-9.54-11.26a22,22,0,0,1-4.83-9.37A11.8,11.8,0,0,1,129,386.19Z"/><path class="cls-5" d="M173.86,348.38q-4.58,18.14-10.08,36t-11.93,35.46q-3.61,9.9-7.51,19.69c-.27.66.79.94,1,.29q6.93-17.37,13-35.1T169.47,369q2.86-10.14,5.44-20.36A.54.54,0,0,0,173.86,348.38Z"/><path class="cls-5" d="M155.24,412.76l-14.78-19.64c-.42-.56-1.37,0-1,.55l14.78,19.65C154.71,413.87,155.67,413.33,155.24,412.76Z"/><path class="cls-5" d="M180.62,409a81.32,81.32,0,0,1-27.1,6.83c-.7.05-.7,1.15,0,1.1a83,83,0,0,0,27.65-7C181.81,409.67,181.26,408.72,180.62,409Z"/><path class="cls-5" d="M165.68,378.71A32.88,32.88,0,0,1,152,363c-.27-.64-1.33-.36-1.06.3a34.14,34.14,0,0,0,14.18,16.41A.55.55,0,0,0,165.68,378.71Z"/><path class="cls-5" d="M186.76,373.75a41.64,41.64,0,0,1-21.61,8.56c-.7.06-.71,1.16,0,1.09a43,43,0,0,0,22.39-8.87C188.09,374.09,187.31,373.32,186.76,373.75Z"/><path class="cls-5" d="M174.59,347.76a34.88,34.88,0,0,1-12.66-5.71c-.57-.42-1.12.53-.55.94a35.65,35.65,0,0,0,12.92,5.83C175,349,175.28,347.92,174.59,347.76Z"/><path class="cls-5" d="M192.4,343.56a44.92,44.92,0,0,1-18.51,6.4c-.7.08-.7,1.18,0,1.1A46.34,46.34,0,0,0,193,344.51.55.55,0,0,0,192.4,343.56Z"/><rect class="cls-6" x="29.15" y="79.14" width="109.64" height="53.62" rx="3.67"/><path class="cls-7" d="M127.49,93.46h-87a1.83,1.83,0,0,1-1.84-1.83h0a1.84,1.84,0,0,1,1.84-1.84h87a1.84,1.84,0,0,1,1.84,1.84h0A1.83,1.83,0,0,1,127.49,93.46Z"/><path class="cls-7" d="M127.49,103h-87a1.83,1.83,0,0,1-1.84-1.83h0a1.84,1.84,0,0,1,1.84-1.84h87a1.84,1.84,0,0,1,1.84,1.84h0A1.83,1.83,0,0,1,127.49,103Z"/><path class="cls-7" d="M127.49,112.56h-87a1.84,1.84,0,0,1-1.84-1.84h0a1.83,1.83,0,0,1,1.84-1.83h87a1.83,1.83,0,0,1,1.84,1.83h0A1.84,1.84,0,0,1,127.49,112.56Z"/><path class="cls-7" d="M127.49,122.11h-87a1.84,1.84,0,0,1-1.84-1.84h0a1.83,1.83,0,0,1,1.84-1.83h87a1.83,1.83,0,0,1,1.84,1.83h0A1.84,1.84,0,0,1,127.49,122.11Z"/><rect class="cls-6" x="157.62" y="53.42" width="142.41" height="90.09" rx="2.56"/><circle class="cls-7" cx="228.82" cy="99.37" r="35.14"/><path class="cls-3" d="M250.42,97,217.7,78.07a1.74,1.74,0,0,0-2.61,1.51v37.78a1.74,1.74,0,0,0,2.61,1.5L250.42,100A1.74,1.74,0,0,0,250.42,97Z"/><circle class="cls-7" cx="166.71" cy="60.74" r="2.32"/><path class="cls-7" d="M194,61.48H173.18a.74.74,0,0,1-.74-.74h0a.75.75,0,0,1,.74-.75H194a.75.75,0,0,1,.74.75h0A.74.74,0,0,1,194,61.48Z"/><circle class="cls-7" cx="166.71" cy="70.9" r="2.32"/><path class="cls-7" d="M194,71.64H173.18a.74.74,0,0,1-.74-.74h0a.75.75,0,0,1,.74-.75H194a.75.75,0,0,1,.74.75h0A.74.74,0,0,1,194,71.64Z"/><rect class="cls-7" x="270.78" y="119.83" width="20.46" height="15.21"/><path class="cls-3" d="M327.84,440.43l.05.32c.05.47.11.93.2,1.42s.17.85.26,1.3h48.72a9,9,0,0,0,.08-1.29c0-.41,0-.88-.13-1.43a2.06,2.06,0,0,0-.07-.32c-.53-2.74-2.53-6.53-9.19-7.75-.32-.07-.65-.11-1-.16h0c-.52-.08-1-.12-1.6-.17l-.55,0c-13.33-1-19.23-5.52-19.23-5.52a42.23,42.23,0,0,1-15,0,19.08,19.08,0,0,0-1.61,3.87c-.11.41-.24.86-.35,1.33,0,.09,0,.18-.08.29s-.09.4-.13.61a1.25,1.25,0,0,0,0,.19c0,.05,0,.07,0,.11a24.15,24.15,0,0,0-.39,3.29A25.26,25.26,0,0,0,327.84,440.43Z"/><path class="cls-8" d="M327.84,440.43l.05.32c.05.47.11.93.2,1.42s.17.85.26,1.3h12.29a11.63,11.63,0,0,0-3.95-9.45,14.28,14.28,0,0,0-7.94-3.36c-.11.41-.24.86-.35,1.33,0,.09,0,.18-.08.29s-.09.4-.13.61a1.25,1.25,0,0,0,0,.19c0,.05,0,.07,0,.11a24.15,24.15,0,0,0-.39,3.29A25.26,25.26,0,0,0,327.84,440.43Z"/><path class="cls-2" d="M350.16,427.19a.87.87,0,0,0-.61-.26,1,1,0,0,0-.62.26l-.4.31c-.64.5-1.3,1-2,1.45a.91.91,0,0,0-.4.52.87.87,0,0,0,1.28,1c.92-.65,1.83-1.33,2.71-2a.85.85,0,0,0,.26-.62A.89.89,0,0,0,350.16,427.19Z"/><path class="cls-2" d="M353.61,428.74a.88.88,0,0,0-1.23,0,15,15,0,0,1-2.12,2l-.37.27a.94.94,0,0,0-.4.52.91.91,0,0,0,.08.67.89.89,0,0,0,1.2.32,15.76,15.76,0,0,0,2.84-2.57.86.86,0,0,0,0-1.23Z"/><path class="cls-2" d="M356.78,429.87a.86.86,0,0,0-1.23,0l-2,2.54a.94.94,0,0,0-.26.61.91.91,0,0,0,.26.62.88.88,0,0,0,1.23,0l2-2.54a1,1,0,0,0,.26-.62A.87.87,0,0,0,356.78,429.87Z"/><path class="cls-2" d="M360.3,430.69a.88.88,0,0,0-1.19.31l-1.32,2.26a.87.87,0,1,0,1.5.88l1.32-2.26A.87.87,0,0,0,360.3,430.69Z"/><path class="cls-2" d="M327.89,440.76c.05.46.11.92.2,1.4s.16.87.27,1.32h48.71a8.1,8.1,0,0,0,.09-1.3,11.68,11.68,0,0,0-.14-1.42Z"/><path class="cls-3" d="M287.17,440.43l-.05.32c-.05.47-.11.93-.19,1.42s-.18.85-.26,1.3H237.94a9,9,0,0,1-.08-1.29,12.22,12.22,0,0,1,.14-1.43,2.06,2.06,0,0,1,.07-.32c.53-2.74,2.53-6.53,9.18-7.75.32-.07.66-.11,1-.16h0c.52-.08,1-.12,1.61-.17l.55,0c13.33-1,19.23-5.52,19.23-5.52a42.21,42.21,0,0,0,15,0,18.78,18.78,0,0,1,1.6,3.87c.12.41.24.86.36,1.33,0,.09.05.18.08.29s.08.4.12.61a1.25,1.25,0,0,1,0,.19c0,.05,0,.07,0,.11a24.08,24.08,0,0,1,.4,3.29A26.6,26.6,0,0,1,287.17,440.43Z"/><path class="cls-8" d="M287.17,440.43l-.05.32c-.05.47-.11.93-.19,1.42s-.18.85-.26,1.3h-12.3a11.66,11.66,0,0,1,3.95-9.45,14.28,14.28,0,0,1,7.94-3.36c.12.41.24.86.36,1.33,0,.09.05.18.08.29s.08.4.12.61a1.25,1.25,0,0,1,0,.19c0,.05,0,.07,0,.11a24.08,24.08,0,0,1,.4,3.29A26.6,26.6,0,0,1,287.17,440.43Z"/><path class="cls-2" d="M264.85,427.19a.9.9,0,0,1,.62-.26,1,1,0,0,1,.61.26l.4.31c.65.5,1.3,1,2,1.45a1,1,0,0,1,.4.52.93.93,0,0,1-.09.67.88.88,0,0,1-1.19.31c-.93-.65-1.83-1.33-2.72-2a.88.88,0,0,1,0-1.23Z"/><path class="cls-2" d="M261.4,428.74a.88.88,0,0,1,1.23,0,15,15,0,0,0,2.12,2l.38.27a1,1,0,0,1,.4.52.92.92,0,0,1-.09.67.88.88,0,0,1-1.19.32A15.82,15.82,0,0,1,261.4,430a.93.93,0,0,1-.25-.61A.89.89,0,0,1,261.4,428.74Z"/><path class="cls-2" d="M258.23,429.87a.85.85,0,0,1,.62-.26.83.83,0,0,1,.61.26l2,2.54a.93.93,0,0,1,.25.61.85.85,0,0,1-.87.87.85.85,0,0,1-.61-.25l-2-2.54a1,1,0,0,1-.26-.62A.87.87,0,0,1,258.23,429.87Z"/><path class="cls-2" d="M254.71,430.69a.88.88,0,0,1,1.19.31l1.33,2.26a.87.87,0,0,1-1.51.88l-1.32-2.26A.88.88,0,0,1,254.71,430.69Z"/><path class="cls-2" d="M287.13,440.76c-.06.46-.12.92-.21,1.4s-.16.87-.26,1.32H237.94a9.09,9.09,0,0,1-.08-1.3,10,10,0,0,1,.14-1.42Z"/><path class="cls-9" d="M269.79,426.79s5-131.71,9.49-188.18h36.56s-14.18,85.7-31.08,188.18A41.46,41.46,0,0,1,269.79,426.79Z"/><path class="cls-9" d="M315.84,238.61c7.61,48.45,14.52,188.18,14.52,188.18s8.69,2.29,15,0c0,0,16.08-123.9,10.34-188.18Z"/><path class="cls-10" d="M269,415c-.16,2.57-.33,5.14-.49,7.71,5.8,2.06,12.23,2.06,18.32,1.15.31-2.87.57-5.82.88-8.68A114.75,114.75,0,0,0,275,413.93,19.81,19.81,0,0,0,269,415Z"/><path class="cls-10" d="M329,416.58c-.06,2.57-.13,5.14-.19,7.72,5.88,1.82,12.3,1.56,18.35.41.2-2.88.34-5.83.54-8.71a115.35,115.35,0,0,0-12.74-.73A19.61,19.61,0,0,0,329,416.58Z"/><path class="cls-11" d="M276.74,241s-15.38,168.83-8.66,175.42c3.38,3.31,18,3.07,20.68.7s26.59-158.41,26.59-158.41S322.93,414.09,327.71,417s17.74,2.7,20.57.47,14.09-131.08,7.39-178.83Z"/><path class="cls-10" d="M285.55,245q-5.28,34.15-8.42,68.59T273,382.45q-.55,19.51-.41,39a.5.5,0,0,0,1,0q-.25-34.49,1.66-69t6-68.72q2.29-19.31,5.26-38.53C286.61,244.63,285.65,244.36,285.55,245Z"/><path class="cls-10" d="M352.45,315.9q-.18-17.65-1.31-35.28t-3.24-35.33l-.54-4.38c-.08-.63-1.08-.64-1,0a652.39,652.39,0,0,1,5,70.4,651,651,0,0,1-2.62,70.52q-1.81,19.8-4.84,39.46c-.1.63.86.9,1,.26q2.69-17.42,4.43-35t2.52-35.21Q352.64,333.64,352.45,315.9Z"/><path class="cls-9" d="M410.07,115.71c-.94-1.91.55-4.24.05-6.42s-3.43-6.26-1.46-7.74c2.2-1.65,6.12,4.8,6.12,4.8s8.31-12.62,10.69-11.6c2,.89-3.34,10.58-3.34,10.58s4.64,1.58,4.43,6.47c-.19,4.53-5.64,7.83-5.64,7.83Z"/><path class="cls-12" d="M352.26,127c14.09,6.24,34.9,32.05,35.87,32.06s17.13-42,19.86-43.21c3.51-1.58,12.51.86,14.52,4.15,1.63,2.65-16.9,61.81-29.27,64.71-15.59,3.66-40.09-22.1-40.09-22.1Z"/><path class="cls-12" d="M273.72,245.25c1.26,3,46.94,14.43,85.12,3.72,1.34-.37-6.58-121.88-6.58-121.88l-14.45-5.72-14.6-.92-15.48,3.07S271.69,240.44,273.72,245.25Z"/><ellipse class="cls-13" cx="327.71" cy="169.56" rx="19.98" ry="16.33" transform="translate(140.7 487.64) rotate(-86.91)"/><path class="cls-9" d="M244.12,117.36c.5-2.32-.79-4.2-.41-6.41s3.08-6.44,1-7.8c-2.29-1.53-5.85,5.12-5.85,5.12s-9-12.13-11.31-11c-2,1,3.92,10.38,3.92,10.38s-4.55,1.83-4.07,6.7c.45,4.52,6.07,7.51,6.07,7.51Z"/><path class="cls-12" d="M307.73,123.52c-23.12,5.59-41.27,37.45-42,37.45s-18.22-43.61-20.21-44c-2.82-.62-12.2,1.6-13.46,5-1.11,3,13.46,62.41,29.06,64.23,15.18,1.77,36.6-25.7,36.6-25.7Z"/><path class="cls-13" d="M309.11,149.72a65.34,65.34,0,0,0-12.18,10.76c-.43.48.28,1.19.7.71a64.08,64.08,0,0,1,12-10.61C310.15,150.22,309.65,149.36,309.11,149.72Z"/><path class="cls-13" d="M311.27,154l-7.15-.34c-.65,0-.64,1,0,1l7.15.34C311.91,155,311.91,154,311.27,154Z"/><path class="cls-13" d="M353.64,139.68c0-.64-1-.65-1,0q.53,10.94,1,21.88c0,.64,1,.65,1,0Q354.17,150.63,353.64,139.68Z"/><path d="M315.36,94a27.23,27.23,0,0,1-5.85-19,6.07,6.07,0,0,1,.93-3.19,3.27,3.27,0,0,1,3.93-1,11.43,11.43,0,0,1,3.05-5.31A21.9,21.9,0,0,1,322.08,62a34.75,34.75,0,0,1,11-4.53,21.14,21.14,0,0,1,11.74.82,15.73,15.73,0,0,1,8.62,7.95A12.82,12.82,0,0,1,353,77.88a21.58,21.58,0,0,1-.05,13.3C340.89,94.76,327.66,96.22,315.36,94Z"/><path class="cls-9" d="M317.44,99a67.34,67.34,0,0,1,6.45,25.78,7.82,7.82,0,0,0,14.4-.85c-.33-5.64.56-8.32,2.29-10.32.14-.17.28-.32.43-.48a2.42,2.42,0,0,1,.32-.32c.2-.21.44-.4.66-.6,1.56-1.34,3.52-2.61,5.74-4.74,2.61-2.47,4.5-5.82,5.09-11l0-.22,0-.39c0-.06,0-.11,0-.17.41-5-.27-11.54-2.52-20.59-2.34-9.37-25.45-12.09-31.26.22C316.72,80.34,317.44,99,317.44,99Z"/><path d="M350.81,74.47a8.17,8.17,0,0,1-3.6,1.92,33.44,33.44,0,0,1-21.31-.67,2.38,2.38,0,0,1-2.47,4,1.33,1.33,0,0,1,.74,1.43,1.35,1.35,0,0,1-1.22,1,15.76,15.76,0,0,1-6.49,10.62,27.23,27.23,0,0,1-1.2-12.21A17.45,17.45,0,0,1,320.78,70c3.28-2.85,7.69-4.12,12-4.4a22.31,22.31,0,0,1,10.33,1.59A15.18,15.18,0,0,1,350.81,74.47Z"/><path d="M334.15,92.8a1.47,1.47,0,0,0,2.93-.18,1.47,1.47,0,1,0-2.93.18Z"/><path class="cls-2" d="M335.59,92.31a.54.54,0,0,0,.57.5.53.53,0,0,0,.5-.57.54.54,0,0,0-1.07.07Z"/><path d="M345.48,92.13A1.48,1.48,0,0,0,347,93.51,1.47,1.47,0,0,0,348.41,92a1.45,1.45,0,0,0-1.55-1.37A1.47,1.47,0,0,0,345.48,92.13Z"/><path class="cls-2" d="M346.93,91.64a.54.54,0,0,0,.56.51.54.54,0,0,0,.51-.57.54.54,0,0,0-.57-.51A.53.53,0,0,0,346.93,91.64Z"/><path class="cls-14" d="M338.53,99.26c.4-.74,1.65-.1,3.09-.1s2.69-.64,3.08.1c.51.93-.73,3.24-3.08,3.24S338,100.19,338.53,99.26Z"/><path class="cls-15" d="M338.73,100.79a12.93,12.93,0,0,1,1.44-.09,7,7,0,0,1,3.77.84,3.29,3.29,0,0,1-5.21-.75Z"/><path class="cls-2" d="M341.62,100c-1.28,0-2.37-.31-2.77-1,.57-.23,1.61.19,2.77.19s2.2-.42,2.77-.19C344,99.66,342.9,100,341.62,100Z"/><path class="cls-16" d="M343.9,96.21a.19.19,0,0,0,.17-.15c.29-1.27-.16-1.67-.59-1.78a1.87,1.87,0,0,0-1.5.42.19.19,0,1,0,.23.31,1.52,1.52,0,0,1,1.18-.36c.38.1.49.55.31,1.33a.19.19,0,0,0,.14.23Z"/><path d="M349.2,86.09a6.1,6.1,0,0,0-5.69.3.95.95,0,0,0,.95,1.64,5.61,5.61,0,0,1,.54-.29h0l.1,0,.22-.07c.19-.06.39-.11.58-.15l.13,0a2.28,2.28,0,0,1,.26,0h.57l.31,0h.08a3.78,3.78,0,0,1,.56.13l.28.09.12,0h0a1,1,0,0,0,1.29-.35A1,1,0,0,0,349.2,86.09Z"/><path d="M338.11,86.09a6.1,6.1,0,0,0-5.69.3.95.95,0,0,0,.95,1.64c.18-.11.36-.2.54-.29h0l.1,0,.22-.07a5.66,5.66,0,0,1,.59-.15l.12,0a2.28,2.28,0,0,1,.26,0h.57l.31,0h.08a3.78,3.78,0,0,1,.56.13l.29.09.11,0h0a1,1,0,0,0,1.29-.35A1,1,0,0,0,338.11,86.09Z"/><rect class="cls-3" x="324.37" y="88.74" width="25.84" height="9.54" rx="1.74" transform="translate(674.59 187.02) rotate(180)"/><rect class="cls-17" x="328.96" y="88.74" width="25.84" height="9.54" rx="1.74" transform="translate(683.76 187.02) rotate(180)"/><path class="cls-3" d="M333.34,95.59h17.08a2.08,2.08,0,0,0,2.08-2.08h0a2.09,2.09,0,0,0-2.08-2.09H333.34a2.09,2.09,0,0,0-2.08,2.09h0A2.08,2.08,0,0,0,333.34,95.59Z"/><rect class="cls-3" x="316.37" y="91.67" width="10.57" height="2.96" transform="translate(643.32 186.29) rotate(180)"/><path class="cls-9" d="M312.45,99.67c2.1,2.23,5.23,2.68,7,1s1.49-4.82-.61-7-5.23-2.68-7-1S310.35,97.45,312.45,99.67Z"/><path class="cls-16" d="M313.19,93.7a3.39,3.39,0,0,1,3-.12,2.83,2.83,0,0,1,1.19.82,1.68,1.68,0,0,1,.33,1.53,2.41,2.41,0,0,1-.76,1,2.09,2.09,0,0,0-.51.58.86.86,0,0,0,1.18,1.15.38.38,0,0,1,.36.68,1.55,1.55,0,0,1-.66.18,1.65,1.65,0,0,1-1.25-.45,1.68,1.68,0,0,1-.32-1.91,3,3,0,0,1,.68-.8,1.71,1.71,0,0,0,.55-.68.92.92,0,0,0-.2-.82,1.7,1.7,0,0,0-.31-.28,1.58,1.58,0,0,0-1.07.44,1.36,1.36,0,0,0-.27,1.15.38.38,0,0,1-.29.46h-.06a.38.38,0,0,1-.4-.29,2.12,2.12,0,0,1,.42-1.8,1.64,1.64,0,0,1,.55-.43,2.42,2.42,0,0,0-1.74.23A1.49,1.49,0,0,0,313,96.2a.39.39,0,0,1-.15.52.38.38,0,0,1-.52-.16A2.24,2.24,0,0,1,313.19,93.7Z"/><path class="cls-11" d="M154.06,440.41l0,.3h0a.1.1,0,0,1,0,.07c0,.13,0,.26,0,.39a3.56,3.56,0,0,1-.06.44,3.21,3.21,0,0,1-.07.43c0,.2-.08.39-.13.61a5,5,0,0,1-.12.63H107.44a10.74,10.74,0,0,1-.06-1.23c0-.13,0-.29,0-.44s0-.28,0-.44,0-.3.07-.47,0-.2,0-.3c.51-2.61,2.4-6.18,8.7-7.34a7,7,0,0,1,1-.15c.51-.08,1-.12,1.55-.16.3,0,.6,0,.89-.08,12.36-1,17.83-5.18,17.83-5.18a40,40,0,0,0,14.18,0,15.87,15.87,0,0,1,1.29,3c.19.56.38,1.19.55,1.87l0,.08a2.76,2.76,0,0,0,.08.27c0,.19.07.38.1.58a1.62,1.62,0,0,1,0,.19s0,.06,0,.11a23.21,23.21,0,0,1,.38,3.11A23.88,23.88,0,0,1,154.06,440.41Z"/><path class="cls-2" d="M154,441.18a3.56,3.56,0,0,1-.06.44,3.21,3.21,0,0,1-.07.43c0,.2-.08.39-.13.61a5,5,0,0,1-.12.63H107.44a10.74,10.74,0,0,1-.06-1.23c0-.13,0-.29,0-.44s0-.28,0-.44Z"/><path class="cls-2" d="M132.93,427.88a.81.81,0,0,1,.58-.25.93.93,0,0,1,.59.25l.38.29c.61.47,1.23.93,1.85,1.37a.88.88,0,0,1,.38.49.84.84,0,0,1-.08.64.83.83,0,0,1-1.13.29c-.87-.61-1.73-1.25-2.57-1.92a.82.82,0,0,1,0-1.16Z"/><path class="cls-2" d="M129.66,429.34a.84.84,0,0,1,1.17,0,13.45,13.45,0,0,0,2,1.91l.35.26a.9.9,0,0,1,.38.5.82.82,0,0,1-.08.63.84.84,0,0,1-1.13.3,15.19,15.19,0,0,1-2.7-2.43.89.89,0,0,1-.24-.58A.85.85,0,0,1,129.66,429.34Z"/><path class="cls-2" d="M126.66,430.41a.87.87,0,0,1,.59-.24.78.78,0,0,1,.58.24l1.87,2.4a.92.92,0,0,1,.24.59.82.82,0,0,1-.82.82.79.79,0,0,1-.59-.24l-1.87-2.4a.92.92,0,0,1-.24-.59A.84.84,0,0,1,126.66,430.41Z"/><path class="cls-2" d="M123.33,431.19a.84.84,0,0,1,1.13.29l1.25,2.14a.82.82,0,1,1-1.42.83c-.42-.71-.84-1.42-1.25-2.14A.82.82,0,0,1,123.33,431.19Z"/><path class="cls-11" d="M261.11,427.93h0l-.51.18-43.06,15a10.8,10.8,0,0,1-.46-1.13,4.43,4.43,0,0,1-.12-.43l0-.11a6.75,6.75,0,0,1-.17-.79,2.08,2.08,0,0,1,0-.3c-.38-2.63.23-6.62,5.8-9.79a8.69,8.69,0,0,1,.86-.46c.45-.24.92-.45,1.42-.66.27-.12.54-.23.8-.37,11.34-5,15.14-10.76,15.14-10.76a39.86,39.86,0,0,0,13.39-4.67,16.68,16.68,0,0,1,2.19,2.38c.37.46.75,1,1.14,1.58,0,0,0,.05,0,.07s.1.15.16.23.2.33.3.51.08.12.09.17,0,0,.07.09a24.54,24.54,0,0,1,1.38,2.81,25.13,25.13,0,0,1,1.09,3.43.74.74,0,0,1,0,.14l.06.29h0a.09.09,0,0,1,0,.07c.06.28.12.54.17.83a3,3,0,0,1,.08.43c0,.2.05.39.08.61A4.16,4.16,0,0,1,261.11,427.93Z"/><path class="cls-2" d="M261.11,427.93l-.51.19-43.06,15a10.8,10.8,0,0,1-.46-1.13,4.43,4.43,0,0,1-.12-.43l0-.11,43.65-16.53a.74.74,0,0,1,0,.14l.06.29h0a.09.09,0,0,1,0,.07c.06.28.12.54.17.83a3,3,0,0,1,.08.43c0,.2.05.39.08.61A4.16,4.16,0,0,1,261.11,427.93Z"/><path class="cls-2" d="M236.54,420.18a.81.81,0,0,1,.47-.42.92.92,0,0,1,.63,0l.46.15c.73.25,1.46.47,2.2.68a.92.92,0,0,1,.52.34.88.88,0,0,1,.13.63.84.84,0,0,1-1,.65c-1-.29-2-.62-3.06-1a.78.78,0,0,1-.42-.47A.81.81,0,0,1,236.54,420.18Z"/><path class="cls-2" d="M233.94,422.64a.83.83,0,0,1,1.1-.38,14.3,14.3,0,0,0,2.52,1.14l.42.13a.92.92,0,0,1,.52.34.83.83,0,0,1-.84,1.28,15.08,15.08,0,0,1-3.34-1.41.84.84,0,0,1-.42-.47A.81.81,0,0,1,233.94,422.64Z"/><path class="cls-2" d="M231.45,424.64a.83.83,0,0,1,1.1-.39l2.56,1.66a.88.88,0,0,1,.42.47.83.83,0,0,1-.51,1.05.77.77,0,0,1-.63,0l-2.55-1.65a.87.87,0,0,1-.42-.47A.81.81,0,0,1,231.45,424.64Z"/><path class="cls-2" d="M228.56,426.47a.85.85,0,0,1,1.17-.1l1.88,1.61a.82.82,0,0,1,.09,1.16.83.83,0,0,1-1.16.1l-1.88-1.61A.83.83,0,0,1,228.56,426.47Z"/><path class="cls-18" d="M149.8,231.75,137.34,427.4s9.71,2.61,14.19,0l38-195Z"/><path class="cls-18" d="M176.52,232.13s9,85.67,14.71,103.32c1.57,4.86,49.42,82.9,49.42,82.9s9.26-.28,13.46-4.79c0,0-31.91-81.67-33-85.67s-5.82-95.76-5.82-95.76Z"/><path class="cls-12" d="M252.88,400.88q-1.81,1.28-3.77,2.43l-.85.49c-11.76,6.71-25.81,9.85-25.81,9.85s-33.85-75.34-35.73-80.47-6.11-52.78-6.11-52.78L163,416.78A57.28,57.28,0,0,1,151.31,418h-1a172.92,172.92,0,0,1-25.13-2s11.57-78.83,25.48-190.13h66.24c9.24,16.53,5.56,98.9,5.73,101.3S252.88,400.88,252.88,400.88Z"/><path class="cls-13" d="M249.11,403.31l-.85.49q-7-12.63-13.77-25.45-7.77-14.78-15.12-29.78c-2.36-4.81-4.82-9.6-6.91-14.53a39.7,39.7,0,0,1-2.47-7.65,44.16,44.16,0,0,1-.74-7.87c-.07-5.6.34-11.22.58-16.82l.72-17q.73-17.08,1.45-34.15a18.26,18.26,0,0,1-8-3.05,18.56,18.56,0,0,1-7-9.35c-.21-.61.76-.87,1-.26a17.29,17.29,0,0,0,18.28,11.75c.64-.07.64.94,0,1a19,19,0,0,1-3.29,0c-.06,1.29-.11,2.58-.17,3.87l-1.44,34-.72,17c-.23,5.47-.7,11-.26,16.48s2.34,10.48,4.69,15.42,4.77,9.9,7.2,14.82q7.35,14.82,15.09,29.44Q243.14,392.57,249.11,403.31Z"/><path class="cls-13" d="M183.54,241.83a175.74,175.74,0,0,0-.17,28.47c0,.65-1,.64-1,0-.2-2.73-.35-5.47-.43-8.22q-.06-1.9-.06-3.81a6,6,0,0,1-2.75-.75l-.72,3.62q-3.25,16.33-6.33,32.71t-6,32.77q-2.92,16.49-5.66,33t-5.29,32.89q-2,12.74-3.84,25.48h-1q2.19-15,4.53-29.87,2.58-16.45,5.33-32.89t5.7-33q2.92-16.39,6-32.76t6.34-32.57a7.27,7.27,0,0,1-1.3-1.3,10.88,10.88,0,0,1-2-6.07,56.94,56.94,0,0,1,.34-7.61q.3-3.94.58-7.89c0-.64,1-.64,1,0-.17,2.39-.35,4.77-.52,7.15s-.42,4.61-.44,6.92a12,12,0,0,0,1.36,6.2,5.76,5.76,0,0,0,4.64,2.95,174.88,174.88,0,0,1,1.61-23.87c.09-.64,1-.37,1,.26Q183.9,237.74,183.54,241.83Z"/><path class="cls-9" d="M166.24,130.83c-11.68,2.82-44.18,27.92-45.68,27.47S94.07,120,94.07,120l-8.94,6.14s19.41,47.77,29.91,51c13.68,4.2,49-18.07,49-18.07Z"/><path class="cls-9" d="M94.07,120s-1.64-10.24-6.5-11.71c-5.21-1.58-14.4-2.12-14.59-.69-.16,1.11,8.07,3.79,8.07,3.79s-3.71,3.41-3.32,6.64,7.44,8.08,7.44,8.08Z"/><path class="cls-11" d="M219,231.74c-.85.81-5.54,1.68-12.18,2.36h0l-2.16.2c-5.14.46-11.23.81-17.52.93l-1.56,0c-4.6.06-9.28,0-13.75-.21l-1-.06c-3.51-.19-6.87-.48-9.95-.89l-1-.14c-5.06-.73-9.28-1.8-12-3.31l5.46-19.6.29-1,2.09-7.5h0l.31-1.12,3.48-12.5.27-1,2.82-10.13.26-.93,1.55-5.57.26-.94h0l.73-2.6s-.69-2.35-1.35-6.06c-.06-.38-.13-.77-.2-1.17-1.24-7.63-2.12-19.88,2.44-29.68l5.59-1.83,1-.33,6.56-2.14h13l3.51,1.15,1,.32,8.62,2.83v.09l1.08,14.14h0l.16,2.13,1.49,19.61.26,1.26.21,1c.4,2,1,5.08,1.82,8.91.06.32.13.64.19,1,.33,1.62.68,3.36,1,5.19.06.33.13.66.2,1,1.55,7.84,3.31,17.05,4.72,25.2q.12.7.24,1.38c.44,2.58.84,5,1.19,7.29h0c.08.61.17,1.2.26,1.78h0C219.19,226.89,219.56,231.17,219,231.74Z"/><path class="cls-10" d="M172.84,218.69c-.81,3.77-1.72,7.51-1.69,11.4a19.55,19.55,0,0,0,.63,5l-1-.06c-1.12-4.67-.4-9.79.67-14.5.87-3.83,2-8.11.3-11.89a11.59,11.59,0,0,0-6.64-5.93,14.53,14.53,0,0,0-9.41-.16l.31-1.12a15.44,15.44,0,0,1,10,.57,12.58,12.58,0,0,1,6.46,5.82C174.11,211.22,173.62,215.09,172.84,218.69Z"/><path class="cls-10" d="M210.66,178.91a19.88,19.88,0,0,1-7.87.26c-5.38-.78-11.33-3.1-16.68-.93a9,9,0,0,0-4.83,4.4,7,7,0,0,0,.77,6.64c2.5,4,7.12,6.29,9,10.73,2.06,5-1.48,9.25-4.11,13.15-2.85,4.22-5.11,9.27-4.29,14.48a11.51,11.51,0,0,0,3.12,6.45,10.53,10.53,0,0,0,1.36,1.14l-1.56,0a11.25,11.25,0,0,1-1.83-2.06,13.4,13.4,0,0,1-2.22-6.71c-.37-5.31,2.08-10.29,5-14.53,1.46-2.1,3.12-4.23,3.83-6.73a7.9,7.9,0,0,0-1.47-7c-2.79-3.88-7.8-6.44-8.94-11.4-1.06-4.61,2.56-8.62,6.76-9.88,5.75-1.74,11.6.72,17.31,1.35a16.58,16.58,0,0,0,6.47-.38C210.53,178.27,210.6,178.59,210.66,178.91Z"/><path class="cls-10" d="M218.31,220.76h0a35.54,35.54,0,0,1-11.53,13.33h0l-2.16.2c.57-.34,1.13-.7,1.67-1.08A34.9,34.9,0,0,0,218.05,219C218.13,219.59,218.22,220.18,218.31,220.76Z"/><path class="cls-10" d="M175.38,191.5a4.73,4.73,0,0,1-3.79,2.64c-3.88.49-6.72-2.48-9.85-4.21a15.08,15.08,0,0,0-2.28-1l.27-1a16.78,16.78,0,0,1,2.33,1.05c3,1.62,6,4.89,9.75,4.13a3.88,3.88,0,0,0,3.09-3.75,11.71,11.71,0,0,0-1.69-5.87,10.3,10.3,0,0,0-3.68-4.09,7.09,7.09,0,0,0-2.56-.92c-.95-.14-1.91-.13-2.87-.26a5.63,5.63,0,0,1-1.55-.42l.26-.93c1.68.73,3.76.35,5.5.9,3.66,1.15,5.84,4.67,7,8.12A7.58,7.58,0,0,1,175.38,191.5Z"/><path class="cls-10" d="M216.86,211.68l-2.51,3.52a18.49,18.49,0,0,1-3.1,3.88,4.52,4.52,0,0,1-4.37.69,9.14,9.14,0,0,1-5.71-5.34,6.67,6.67,0,0,1,2-7.5c1-1,2.29-1.92,2.8-3.31.57-1.55-.27-3.08-1.32-4.2-2.14-2.29-5.12-3.57-7.35-5.76-1.9-1.86-3.25-4.51-2.51-7.22s3.39-3.79,6-3.85c3.28-.07,6.39,1.15,9.63,1.45.44,0,.89.06,1.34.06.06.33.13.66.2,1-.33,0-.66,0-1,0-3.37-.19-6.6-1.5-10-1.49a6.6,6.6,0,0,0-3.66.95,4,4,0,0,0-1.7,3.39c0,2.89,2.18,5.06,4.35,6.64s5.09,3.1,6.53,5.63a4.37,4.37,0,0,1,.46,3.69,7.9,7.9,0,0,1-2.28,3A8.25,8.25,0,0,0,202,210.2a6,6,0,0,0,.1,4,7.46,7.46,0,0,0,2.37,3.18,6.94,6.94,0,0,0,4,1.72,4.28,4.28,0,0,0,3.36-2.12c1-1.27,1.85-2.58,2.77-3.87l2-2.77Q216.74,211,216.86,211.68Z"/><path class="cls-10" d="M162.31,226.84a19.45,19.45,0,0,0-1.51,7.26l-1-.14a16.45,16.45,0,0,1,.83-5.32c1.08-3.49,2.86-6.88,2.71-10.62a6.82,6.82,0,0,0-5.63-6.89,11.26,11.26,0,0,0-4.44-.08l.29-1a11.49,11.49,0,0,1,4.87.27,7.82,7.82,0,0,1,5.76,6.34C164.8,220.19,163.5,223.56,162.31,226.84Z"/><path class="cls-10" d="M208.65,169a9.39,9.39,0,0,1-1.84.06c-5-.31-9-3.58-13.2-5.87a16.35,16.35,0,0,0-6.85-2.27,11.07,11.07,0,0,0-6.44,1.71c-3.75,2.36-4.89,7.39-9.23,9a9,9,0,0,1-6.73-.34l.26-.94a9.49,9.49,0,0,0,1.5.52,7.63,7.63,0,0,0,7-1.61c1.54-1.42,2.52-3.31,3.84-4.92a12,12,0,0,1,4.89-3.56c4.23-1.68,8.52-.47,12.36,1.64,4.07,2.23,8.07,5.54,12.93,5.7a9.36,9.36,0,0,0,1.3-.05Z"/><path class="cls-10" d="M206.69,147.2a21.23,21.23,0,0,1-1.22,2.18,17.59,17.59,0,0,1-5.14,5.31,10.64,10.64,0,0,1-7.78,1.92c-2.68-.56-4.94-2.63-7-4.36a15.64,15.64,0,0,1-4.78-6.26,8.14,8.14,0,0,1,.54-7.12c1.43-2.2,4-3.06,6.42-3.71,2.56-.68,5.28-1.35,6.83-3.7a7.51,7.51,0,0,0,1.26-3.78l1,.32a8.45,8.45,0,0,1-.88,3.16c-1.26,2.49-3.59,3.75-6.18,4.5-2.43.71-5.26,1.12-7.06,3.08s-1.74,4.57-1,6.81c.86,2.56,2.88,4.56,4.89,6.26s4.28,3.77,7,3.95A11,11,0,0,0,201,153a18.06,18.06,0,0,0,4.55-5.75c.36-.7.68-1.41,1-2.14Z"/><path class="cls-10" d="M175.81,159.23c-2.53,3.38-7.14,4.07-10.95,2.77l-.86-.32c-.06-.38-.13-.77-.2-1.17a12.68,12.68,0,0,0,2.54.87c3.91.89,8.2-.68,9.69-4.61s-.14-8-3-10.68c-1.35-1.27-2.84-2.38-3.08-4.36s.77-4,1.67-5.76,2-4.07.88-6.06a4.86,4.86,0,0,0-.65-.91l1-.33a5.11,5.11,0,0,1,.69,1.12c1,2.34-.09,4.79-1.17,6.88s-2.26,4.5-.83,6.56a15.24,15.24,0,0,0,2.25,2.22,13.56,13.56,0,0,1,1.94,2.33C178,151.2,178.34,155.85,175.81,159.23Z"/><path class="cls-9" d="M215.55,224.43c-1.13.37-1.26,1.9-3.05,2.67s-5.14.39-6.33,1.34-8,9.86-5.91,11.2,4.76-4.28,4.92-4.28-3.55,6.85-1.72,7.78,5.06-7.48,5.27-7.44-1.76,6.78.11,7.24,3.14-6.26,3.35-6.3-.46,5.14.9,5.2,2.24-6.42,2.55-6.48,3.26.68,5.43-.29,4-5.78,3-7.31S217,224,215.55,224.43Z"/><path class="cls-9" d="M205.45,130.83c23.93,8.06,41.09,41.5,40,50.25s-21.08,47.65-21.08,47.65l-10.19-2.93s14.27-42.37,13.79-44.89-20.32-21.69-20.32-21.69C196.35,144.56,205.45,130.83,205.45,130.83Z"/><circle cx="183" cy="92.82" r="24.09"/><circle cx="199.15" cy="73.75" r="11.74" transform="translate(6.18 162.42) rotate(-45)"/><path class="cls-18" d="M164.38,103a2.89,2.89,0,0,1,0,.29c.79,4.85,2.71,7.85,5.28,10,1.81,1.54,3.43,2.53,4.77,3.49.26.18.5.36.74.55,2.5,1.91,4,4.06,4,10.46a7.16,7.16,0,0,0,13.19,0,63.3,63.3,0,0,1,2.68-18.72c.32-1.13.64-2.09.92-2.86.53-1.47.91-2.28.91-2.28s-.36-17-2.81-21.53c-6-10.9-26.9-7.18-28.53,1.51C164,92.37,163.7,98.47,164.38,103Z"/><path d="M162.87,88.81a16.52,16.52,0,0,0,11.89-7.64,14.88,14.88,0,0,0,15.82,8.71,10.86,10.86,0,0,0,8.57,10.33A59,59,0,0,0,196,85.14c-1-2.92-2.34-5.86-4.7-7.86a13.45,13.45,0,0,0-7.68-2.88,33.58,33.58,0,0,0-8.3.67,20.86,20.86,0,0,0-6.93,2.14A11.58,11.58,0,0,0,162.87,88.81Z"/><circle cx="179.92" cy="99.29" r="1.33"/><circle class="cls-2" cx="179.44" cy="98.92" r="0.49"/><path d="M171,99.28A1.33,1.33,0,1,1,169.66,98,1.33,1.33,0,0,1,171,99.28Z"/><circle class="cls-2" cx="169.18" cy="98.92" r="0.49"/><path d="M171.88,94.09a4.35,4.35,0,0,0-5.41.27.87.87,0,0,0-.12,1.09.63.63,0,0,0,1,.14,3.1,3.1,0,0,1,2.27-.75,3.17,3.17,0,0,1,1.18.33c.33.16.65.45,1,.23a.63.63,0,0,0,.22-.21A.87.87,0,0,0,171.88,94.09Z"/><path d="M177.05,94.09a5.55,5.55,0,0,1,6.19.27.78.78,0,1,1-1,1.23,3.9,3.9,0,0,0-2.6-.73,4.21,4.21,0,0,0-1.36.31c-.37.16-.75.44-1.17.23a.64.64,0,0,1-.25-.21A.79.79,0,0,1,177.05,94.09Z"/><path class="cls-15" d="M172.64,102.88a.17.17,0,0,1-.17-.12c-.33-1.13.06-1.52.44-1.64a1.69,1.69,0,0,1,1.37.3.18.18,0,0,1,.06.24.18.18,0,0,1-.24,0,1.4,1.4,0,0,0-1.09-.26c-.34.11-.41.52-.21,1.21a.18.18,0,0,1-.11.22Z"/><path class="cls-15" d="M173.51,106.79a5,5,0,0,1-2.34-.72.75.75,0,0,1,.77-1.28,3.93,3.93,0,0,0,4.65-.58.75.75,0,0,1,1.16,1A5.35,5.35,0,0,1,173.51,106.79Z"/><rect class="cls-3" x="166.03" y="94.51" width="25.84" height="9.54" rx="1.74"/><rect class="cls-17" x="161.44" y="94.51" width="25.84" height="9.54" rx="1.74"/><path class="cls-3" d="M182.9,101.37H165.83a2.08,2.08,0,0,1-2.09-2.09h0a2.08,2.08,0,0,1,2.09-2.08H182.9A2.09,2.09,0,0,1,185,99.28h0A2.09,2.09,0,0,1,182.9,101.37Z"/><rect class="cls-3" x="189.3" y="97.44" width="10.57" height="2.96"/><path class="cls-18" d="M201.46,104.33c-1.79,2.14-4.63,2.72-6.33,1.29s-1.62-4.31.18-6.45,4.63-2.72,6.32-1.3S203.26,102.19,201.46,104.33Z"/><path class="cls-15" d="M200.46,98.92a3.13,3.13,0,0,0-2.72,0,2.59,2.59,0,0,0-1,.81,1.54,1.54,0,0,0-.22,1.42,2.1,2.1,0,0,0,.75.88,2.18,2.18,0,0,1,.5.51.84.84,0,0,1-.1.93.81.81,0,0,1-.91.18.36.36,0,0,0-.47.17.35.35,0,0,0,.17.47,1.42,1.42,0,0,0,.61.13,1.48,1.48,0,0,0,1.3-2.23,2.61,2.61,0,0,0-.66-.7,1.74,1.74,0,0,1-.54-.59.86.86,0,0,1,.14-.76,1.38,1.38,0,0,1,.27-.27,1.43,1.43,0,0,1,1,.34,1.27,1.27,0,0,1,.31,1,.35.35,0,0,0,.29.4h.06a.34.34,0,0,0,.34-.29,1.92,1.92,0,0,0-.48-1.62,1.67,1.67,0,0,0-.52-.36,2.25,2.25,0,0,1,1.59.11,1.37,1.37,0,0,1,.69,1.65.35.35,0,1,0,.63.29A2,2,0,0,0,200.46,98.92Z"/><rect class="cls-6" x="40.38" y="211.37" width="167.4" height="47.21" rx="2.01"/><path class="cls-7" d="M198.39,225.39h-109a1.81,1.81,0,0,1-1.81-1.81h0a1.81,1.81,0,0,1,1.81-1.81h109a1.81,1.81,0,0,1,1.81,1.81h0A1.81,1.81,0,0,1,198.39,225.39Z"/><path class="cls-7" d="M198.39,236.79h-109A1.81,1.81,0,0,1,87.53,235h0a1.81,1.81,0,0,1,1.81-1.81h109A1.81,1.81,0,0,1,200.2,235h0A1.81,1.81,0,0,1,198.39,236.79Z"/><path class="cls-7" d="M198.39,248.19h-109a1.81,1.81,0,0,1-1.81-1.81h0a1.81,1.81,0,0,1,1.81-1.81h109a1.81,1.81,0,0,1,1.81,1.81h0A1.81,1.81,0,0,1,198.39,248.19Z"/><rect class="cls-12" x="45.88" y="217.74" width="36.22" height="36.22" rx="1.51"/><rect class="cls-6" x="281.69" y="230.89" width="121.51" height="121.51" rx="2.45"/><path class="cls-7" d="M342.45,336.54a44.9,44.9,0,1,1,0-89.8v12.57a32.34,32.34,0,1,0,32,37l12.43,1.81A45.11,45.11,0,0,1,342.45,336.54Z"/><circle class="cls-12" cx="342.45" cy="291.64" r="24.28" transform="translate(-84.69 150.66) rotate(-22.15)"/><rect class="cls-7" x="364.15" y="242.46" width="4.72" height="4.72"/><rect class="cls-7" x="371.04" y="242.46" width="19.37" height="1.01"/><rect class="cls-7" x="371.04" y="244.82" width="25.47" height="1.01"/><rect class="cls-7" x="371.04" y="247.18" width="25.47" height="1.01"/><rect class="cls-7" x="371.04" y="249.54" width="25.47" height="1.01"/><path class="cls-2" d="M417.38,210.24a5,5,0,1,1,5-5A5,5,0,0,1,417.38,210.24Zm0-9.06a4,4,0,1,0,4,4A4,4,0,0,0,417.38,201.18Z"/><path class="cls-2" d="M217.64,286.56a5,5,0,1,1,5-5A5,5,0,0,1,217.64,286.56Zm0-9.06a4,4,0,1,0,4,4A4,4,0,0,0,217.64,277.5Z"/><path class="cls-2" d="M108.05,55.67a5,5,0,1,1,5-5A5,5,0,0,1,108.05,55.67Zm0-9.06a4,4,0,1,0,4,4A4,4,0,0,0,108.05,46.61Z"/><path class="cls-2" d="M61.18,178.18a5,5,0,1,1,5-5A5,5,0,0,1,61.18,178.18Zm0-9.06a4,4,0,1,0,4,4A4,4,0,0,0,61.18,169.12Z"/><path class="cls-2" d="M378.93,218.07a2.47,2.47,0,1,1,2.47-2.46A2.46,2.46,0,0,1,378.93,218.07Zm0-3.93a1.47,1.47,0,1,0,1.47,1.47A1.46,1.46,0,0,0,378.93,214.14Z"/><path class="cls-2" d="M100.87,191.39a2.47,2.47,0,1,1,2.47-2.47A2.48,2.48,0,0,1,100.87,191.39Zm0-3.94a1.47,1.47,0,1,0,1.47,1.47A1.47,1.47,0,0,0,100.87,187.45Z"/><path class="cls-2" d="M171,25.89a2.47,2.47,0,1,1,2.47-2.46A2.47,2.47,0,0,1,171,25.89ZM171,22a1.47,1.47,0,1,0,1.47,1.47A1.47,1.47,0,0,0,171,22Z"/><path class="cls-2" d="M243.85,230.74a2.47,2.47,0,1,1,2.46-2.47A2.47,2.47,0,0,1,243.85,230.74Zm0-3.93a1.47,1.47,0,1,0,1.46,1.46A1.47,1.47,0,0,0,243.85,226.81Z"/><path class="cls-2" d="M102.84,296.08a2.47,2.47,0,1,1,2.47-2.47A2.48,2.48,0,0,1,102.84,296.08Zm0-3.94a1.47,1.47,0,1,0,1.47,1.47A1.47,1.47,0,0,0,102.84,292.14Z"/><path class="cls-2" d="M341,119.45a2.47,2.47,0,1,1,2.47-2.47A2.47,2.47,0,0,1,341,119.45Zm0-3.94a1.47,1.47,0,1,0,1.47,1.47A1.46,1.46,0,0,0,341,115.51Z"/><rect class="cls-6" x="358.99" y="56.39" width="121.18" height="121.18" rx="5.11"/><path class="cls-7" d="M468.14,164.41H370.19V70.67a.82.82,0,1,1,1.64,0v92.1h96.31a.82.82,0,0,1,0,1.64Z"/><path class="cls-7" d="M467.94,164.69a.81.81,0,0,1-.82-.82V109.41c-1.87-4-8-5.59-12.59-4.52-5,1.16-9,4.9-11.9,8-.8.85-1.57,1.71-2.35,2.58a49.25,49.25,0,0,1-8.49,8.07,21.75,21.75,0,0,1-16.07,3.76,17.13,17.13,0,0,1-12.81-10.25,30.4,30.4,0,0,1-1.51-7.83c-.37-3.56-.72-6.92-2.64-9.63-2.92-4.1-8.7-5.1-13.13-4.28-5,.93-10,3.77-14.18,6.42a.82.82,0,0,1-1.13-.25.81.81,0,0,1,.25-1.13c4.34-2.74,9.48-5.67,14.76-6.65,6-1.12,11.82.82,14.76,4.94,2.18,3.06,2.57,6.8,2.94,10.41a29.2,29.2,0,0,0,1.41,7.41A15.44,15.44,0,0,0,416,125.71a20,20,0,0,0,14.85-3.49,48.14,48.14,0,0,0,8.2-7.82c.78-.87,1.57-1.75,2.37-2.6,3.09-3.3,7.32-7.24,12.73-8.5s12.35.56,14.53,5.61l.07.15v54.81A.82.82,0,0,1,467.94,164.69Z"/><path class="cls-7" d="M391.73,164.49a.82.82,0,0,1-.82-.82V94.37a.82.82,0,1,1,1.64,0v69.3A.82.82,0,0,1,391.73,164.49Z"/><path class="cls-7" d="M451.62,164.07V105.26a.82.82,0,0,1,1.64,0V162.7a.79.79,0,0,1,.21.54.81.81,0,0,1-.81.82Z"/><path class="cls-7" d="M438,78.88a1.68,1.68,0,1,1-1.68-1.68A1.68,1.68,0,0,1,438,78.88Z"/><path class="cls-7" d="M438,89.56a1.68,1.68,0,1,1-1.68-1.68A1.68,1.68,0,0,1,438,89.56Z"/><path class="cls-7" d="M467.26,79.77H441.61a.89.89,0,0,1-.89-.89h0a.89.89,0,0,1,.89-.89h25.65a.88.88,0,0,1,.88.89h0A.88.88,0,0,1,467.26,79.77Z"/><path class="cls-7" d="M467.26,90.45H441.61a.89.89,0,0,1-.89-.89h0a.89.89,0,0,1,.89-.89h25.65a.88.88,0,0,1,.88.89h0A.88.88,0,0,1,467.26,90.45Z"/></g></svg>